/* XPM */
static char *a316cfd84cad416dffedd15099a1f9d2CFdqZlhgGBgjfNHF[] = {
/* columns rows colors chars-per-pixel */
"32 32 122 2 ",
"   c None",
".  c #43696D",
"X  c #4A767B",
"o  c #4C797E",
"O  c #6E6C6C",
"+  c #E6394F",
"@  c #4D7F84",
"#  c #507F85",
"$  c #D4798A",
"%  c #4D8388",
"&  c #528388",
"*  c #55888E",
"=  c #558C92",
"-  c #579096",
";  c #56949A",
":  c #5C949A",
">  c #5E999F",
",  c #5E9AA0",
"<  c #619CA3",
"1  c #6F9FA6",
"2  c #7E97AB",
"3  c #5FA4AB",
"4  c #65A3AA",
"5  c #62A8AF",
"6  c #68A8AF",
"7  c #72A3A9",
"8  c #63ABB2",
"9  c #6AACB3",
"0  c #76A9B0",
"q  c #76ACBF",
"w  c #6DB4BB",
"e  c #71B6BE",
"r  c #72B8BF",
"t  c #5DB2C5",
"y  c #5CB5C8",
"u  c #6DBBC3",
"i  c #60B5C8",
"p  c #64B9CA",
"a  c #6BBECE",
"s  c #73B2C4",
"d  c #74BBC3",
"f  c #79BCC4",
"g  c #75C3CB",
"h  c #79C4CD",
"j  c #6EC2D3",
"k  c #71C3D4",
"l  c #7ECDD5",
"z  c #7CD5DE",
"x  c #7DD7E0",
"c  c #7ED8E1",
"v  c gray59",
"b  c gray60",
"n  c #8CB6BB",
"m  c #8BB8BE",
"M  c #BCAFBE",
"N  c #B3B3B3",
"B  c gray75",
"V  c #C595A5",
"C  c #82BEC6",
"Z  c #BEB6C4",
"A  c #CABAC1",
"S  c #81C2CA",
"D  c #89C4CB",
"F  c #81C8D0",
"G  c #8DCED6",
"H  c #83D5DE",
"J  c #92D2DA",
"K  c #BCCBD5",
"L  c #A1D1D6",
"P  c #AAD5D9",
"I  c #B2D9DF",
"U  c #85D7E0",
"Y  c #84D8E1",
"T  c #8ADBE3",
"R  c #8DDFE9",
"E  c #92DFE7",
"W  c #9ADDE6",
"Q  c #90DFE8",
"!  c #A6DBE2",
"~  c #8CE0EA",
"^  c #92E0E7",
"/  c #94E3EC",
"(  c #9AEAEF",
")  c #96E6F0",
"_  c #99E6F1",
"`  c #9CEAF4",
"'  c #B0E5EB",
"]  c #A2ECF6",
"[  c #A4EEF9",
"{  c #BDEBF0",
"}  c #A7F1F6",
"|  c #ACF3F6",
" . c #A5F1FB",
".. c #AAF4FC",
"X. c #B3F4FC",
"o. c #B5FBFD",
"O. c #BAFFFF",
"+. c #C8C7C7",
"@. c #CCCCCC",
"#. c #D5D5D5",
"$. c #DEDEDE",
"%. c #C4F6FD",
"&. c #DAF4F7",
"*. c #D0F4F9",
"=. c #D4F9FE",
"-. c #EAEAEA",
";. c #E3F6F8",
":. c #E1F6F8",
">. c #E4F6F8",
",. c #E5FBFE",
"<. c #EAFCFE",
"1. c #EDFDFF",
"2. c gray95",
"3. c #F4F3F3",
"4. c #F6F6F6",
"5. c gray97",
"6. c #F8F8F8",
"7. c #F9FEFF",
"8. c #F8FFFF",
"9. c #FDFFFF",
"0. c #FEFFFF",
"q. c white",
/* pixels */
"                                                                ",
"      N B         @.b                     b @.                  ",
"      $.-.      v 3.N                     N 3.b                 ",
"  N $.4.-.    #.N       0 J J J J J J 0       N #.              ",
"  @.q.q.-.    6.@.      D X...........D       @.6.              ",
"  @.q.q.-.    6.@.  1 W | O.O.o.....[ ] W 1   @.6.              ",
"  @.q.q.-.    #.N O C ..o.O.O.o.` ` [ ....C O N #.              ",
"  @.q.q.-.      v 3.*...o.O.O.X.a k  ... .*.3.v                 ",
"  @.q.q.-.        +.I ..K A ! R y s Z K ..I +.                  ",
"  @.q.q.-.          7 ..$ + 2 y y 2 + $ ..7                     ",
"  @.q.q.-.        : S ..A V s t t s V Z  .S ;                   ",
"  @.q.q.-.      # H /  ... .a t t a  ... ./ z @                 ",
"  n ' ' J     4 f _ / E ]  .k t t a  .] R c x w 8 8 8 8 8 8 =   ",
"  9 Y H h   . F / ..) U _ [ k i i k [ _ x x z x c c c c x c 8   ",
"  C ] T H G G H / o.| ` ^ T / _ ) ) T E ` ~ x / ` ] ] ` ) c 8   ",
"  C [ T T [ ] H / O.X.../ T ` [ [ ] T / ../ z ) ......X.] c 8   ",
"  9 Y Y T  .] U / ..o.O.o.o.E T T E X.o.O.( z ` ......1.&.Y 8   ",
"  8 z z H G G d F ` } | | | T H H T | | | / z ) ..X.%.8.>.Y 8   ",
"  9 T H h       & H H J H H H H H H z Y c c z ) ..<.q.q.&.Y 8   ",
"  = 9 9 <         6 h H H H H H H H z g 3 u z _ ..=.,.q.>.Y 8   ",
"                    : H H H H H H H H 9   ; z ) .. .X.7.>.Y 8   ",
"                    < H 6 : h H Y h : %   , H R / / / { P > @   ",
"                    > l @   e H H e       > H H H z z z w       ",
"                      *     X * l d         # e H - % * o       ",
"                                d w           4 h               ",
"                                                                ",
"                                                                ",
"                                d 9                             ",
"                                4 >                             ",
"                                                                ",
"                                                                ",
"                                                                "
};
