/* XPM */
static char *_b6dea2b4e9c4e3bab29c3a9aefd1bc3jYEFVlOEC1nEoPen[] = {
/* columns rows colors chars-per-pixel */
"32 32 145 2 ",
"   c #1A212B",
".  c #1C2029",
"X  c #1D2228",
"o  c #1D212A",
"O  c #1E222B",
"+  c #1A202C",
"@  c #1B212D",
"#  c #1B222C",
"$  c #1C232D",
"%  c #1F232C",
"&  c #1E222D",
"*  c #1D232F",
"=  c #1D242E",
"-  c #1C252E",
";  c #1C242F",
":  c #1E252F",
">  c #1D262F",
",  c #1F262E",
"<  c #1E2430",
"1  c #1F2531",
"2  c #1D2730",
"3  c #1F2630",
"4  c #1E2730",
"5  c #1E2631",
"6  c #1F2732",
"7  c #1F2831",
"8  c #20232C",
"9  c #20242D",
"0  c #21242D",
"q  c #21262C",
"w  c #21252E",
"e  c #20272F",
"r  c #22262F",
"t  c #23282E",
"y  c #24292F",
"u  c #212530",
"i  c #212531",
"p  c #202731",
"a  c #232730",
"s  c #222631",
"d  c #202632",
"f  c #212733",
"g  c #232732",
"h  c #212830",
"j  c #222931",
"k  c #212832",
"l  c #202932",
"z  c #202833",
"x  c #222933",
"c  c #212A33",
"v  c #232A32",
"b  c #242831",
"n  c #252831",
"m  c #252A30",
"M  c #262B31",
"N  c #252932",
"B  c #242833",
"V  c #262932",
"C  c #262A33",
"Z  c #212934",
"A  c #222834",
"S  c #232935",
"D  c #202A34",
"F  c #212B35",
"G  c #232A34",
"H  c #222B34",
"J  c #222A35",
"K  c #232B36",
"L  c #222A37",
"P  c #252934",
"I  c #242B35",
"U  c #272B34",
"Y  c #262A35",
"T  c #242A36",
"R  c #252B37",
"E  c #272B36",
"W  c #272B37",
"Q  c #232C35",
"!  c #222C36",
"~  c #232D37",
"^  c #262D35",
"/  c #252C36",
"(  c #242D36",
")  c #242C37",
"_  c #262D37",
"`  c #252E37",
"'  c #272E36",
"]  c #292E34",
"[  c #292D36",
"{  c #282C37",
"}  c #2A2E37",
"|  c #232B38",
" . c #242A38",
".. c #252D38",
"X. c #242C39",
"o. c #262C38",
"O. c #272D39",
"+. c #242E38",
"@. c #252F39",
"#. c #272E38",
"$. c #262F38",
"%. c #262E39",
"&. c #252D3A",
"*. c #272F3A",
"=. c #262E3B",
"-. c #262D3D",
";. c #272F3C",
":. c #292D38",
">. c #292D39",
",. c #282F39",
"<. c #2A2E39",
"1. c #282E3A",
"2. c #292F3B",
"3. c #2A2E3A",
"4. c #2B2F3A",
"5. c #292F3D",
"6. c #282F3F",
"7. c #273039",
"8. c #26303A",
"9. c #25313D",
"0. c #27313D",
"q. c #29303A",
"w. c #28313A",
"e. c #28303B",
"r. c #2A313B",
"t. c #29323B",
"y. c #2C303B",
"u. c #29313C",
"i. c #28303D",
"p. c #2A303C",
"a. c #2B313D",
"s. c #28323C",
"d. c #2A323D",
"f. c #2A303E",
"g. c #2B333E",
"h. c #2A323F",
"j. c #2C323E",
"k. c #2D333F",
"l. c #2B343D",
"z. c #2A3141",
"x. c #2B3141",
"c. c #2B3340",
"v. c #303642",
"b. c #313743",
"n. c #323642",
/* pixels */
"^ o.^ j.o.7.Q b j.R q w W } p b ^ o.o.g.o.0.^ c g.^ w p V 4.c c ",
"h.5.q.0.o.h.^ n.h.b ^ F ~ ^ 4.F o.h.q.h.o.4.o.b.q.R R F R ^ } F ",
";.R ^ h.o.o.c ^ c p R c 5 F R 7 o.o.^ 0.F o.F o.F c R p , p F p ",
"b o.^ o.7 b o.q.c y c w ^ o.q.b c o.o.^ c b ^ q.w b c p F 4.4.R ",
"h.z.o.;.~ ^ 5.o.o.o.o.0.~ o.5.p 4.h.o.h.^ o.0.o.o.R F 4.o.o.o.~ ",
"0.0.o.R c ~ 5 F p 5 7 5 ^ o.^ F o.o.o.F 7 ~ 5 | 5 p 5 p ^ ~ o.F ",
"b ^ % p b 4.F , + 5 % . 5 < p R } F % c b q.c ,   5 , . i p 5 ^ ",
"h.4.b g.o.h.o.a o.^ h.p } p c W h.4.a j.4.h.o.y o.o.q.t W p F  .",
"^ R 4.R F f p F 5.F R F 4.o.F F o. .4.| F f 5 R h.F R F 4.o.F c ",
"F F o.F F F p i R R F p p 5 5 F R F o.F F F p 5 F ^ F p p c 5 F ",
"c p a + + , , w p w R o b F ~ % c c p + + % , w b w ^ o b p R 8 ",
"o.h.o.4.^ R 5 7 b 4. .w | 7 o.R 4.5.4.4.o.R 5 p F }  .5 ^ c  .R ",
"^ F o.c 5 p 5 , 5 c w ,   , , F R R R c p p , ; , c 5 , + % 5 p ",
"p F b R p 4.5 % p w R o , 5 b , 5 c R c p } p , p w M X w p b % ",
"4.o.F R 4. .R F ^ h.j.^ 4.4.o.^ 0.o.p o.R R  .F F h.z.~ q.0.h.F ",
"| ~ F F R c R 7 F  .0.o.c R o.~ R o.c F W F R p F ^ 0.4.b o.o.b ",
"^ o.o.h.o.o.^ b j. .w w F 4.a R R ^ o.j.o.o.o.R h.b w w F o.R c ",
"z.4.h.q.0.0.o.b.h.^ ^ c R o.} F ^ 0.q.h.;.o.o.b.q.R o.F o.o.} F ",
"o.~ F 5.~ ^ c o.c p R 5 , c F p o.o.^ o.R ^ p ^ F p R p , R F p ",
"b o.^ } 5 R o.q.p a R p ^ o.4.R c o.^ q.p R o.h.c b c a F o.4.R ",
"j.c.0.0.R ^ 4.o.o.^ o.o.^ o.0.F q.z.4.0.R ^ 5.o.o.o.^ o.^ o.0.F ",
"q.o.o.F c ^ 5 F p 5 5 7 R R ~ F o.^ o.F 7 o.5 F 5 5 7 , o.^ F F ",
"b R o c p y.F ,   5 , + w < p F 4.F o c b 0.b , + 6 % + p 5 p R ",
"g.4.a j.4.h.^ b o.~ h.w 4.p F o.h.4.b g.4.h.^ y o.o.h.w ] p c R ",
"o.R o.~ F p p R 0.c R R 5.^ F F ^ R q.R f p 5 R 0.F R F 4.o.F p ",
"R F 4.F F F 5 i R o.c p p F 7 6 F ~ o.F F F p 5 ~ o.F p p c 5 F ",
"c c a + + % < w p t ^ o a p  .% F p R + % % 5 w c w W o b p R % ",
"o.h.4.o.o.o.p p F 4.F 5 R c o.^ 4.4.o.o.o.| , 7 c } R , o.p o.R ",
"R R R F c c , ; , 5 5 , + < % c  .F R p c c , ; 5 b , , % < + c ",
"p c F F b o.5 , w w b o 8 p b w p R R R b o.5 % w p b o % f b , ",
"^ o.f o.^ R ~ F ~ h.h.~ 4.o.0.^ o.o.p o.^  . .F ^ h.z.~ q.o.q.R ",
"o.o.F ^ F R F p ~ o.;.4.~ o.o.~ o.R F ^ R F ~ f F ~ ;.4.F ^ o.R "
};
