/* XPM */
static char *result[] = {
/* columns rows colors chars-per-pixel */
"32 32 118 2 ",
"   c #1D1D1D",
".  c #1E1E1E",
"X  c gray12",
"o  c #202020",
"O  c gray13",
"+  c #222222",
"@  c #232323",
"#  c gray14",
"$  c #252525",
"%  c gray15",
"&  c #282828",
"*  c gray16",
"=  c gray17",
"-  c gray18",
";  c gray19",
":  c #313131",
">  c #323232",
",  c gray20",
"<  c #343434",
"1  c #353535",
"2  c #373737",
"3  c #393939",
"4  c #3A3A3A",
"5  c gray23",
"6  c #3C3C3C",
"7  c #3F3F3F",
"8  c gray26",
"9  c gray29",
"0  c gray31",
"q  c #515151",
"w  c gray32",
"e  c #535353",
"r  c gray33",
"t  c #585858",
"y  c gray36",
"u  c gray37",
"i  c #606060",
"p  c #626262",
"a  c gray39",
"s  c #656565",
"d  c #676767",
"f  c #686868",
"g  c DimGray",
"h  c #797979",
"j  c gray48",
"k  c #7B7B7B",
"l  c gray49",
"z  c #7E7E7E",
"x  c #848484",
"c  c gray52",
"v  c #868686",
"b  c gray53",
"n  c #888888",
"m  c #898989",
"M  c #8D8D8D",
"N  c #8E8E8E",
"B  c gray56",
"V  c #909090",
"C  c gray57",
"Z  c #929292",
"A  c #939393",
"S  c gray58",
"D  c #959595",
"F  c gray59",
"G  c #979797",
"H  c gray60",
"J  c #9B9B9B",
"K  c gray61",
"L  c #9D9D9D",
"P  c #9F9F9F",
"I  c #A0A0A0",
"U  c gray63",
"Y  c #A5A5A5",
"T  c #A7A7A7",
"R  c gray66",
"E  c #AAAAAA",
"W  c gray67",
"Q  c #ACACAC",
"!  c gray68",
"~  c #AEAEAE",
"^  c #B4B4B4",
"/  c gray71",
"(  c #B6B6B6",
")  c #B7B7B7",
"_  c #BBBBBB",
"`  c #BCBCBC",
"'  c gray74",
"]  c #C0C0C0",
"[  c #C1C1C1",
"{  c gray76",
"}  c #C3C3C3",
"|  c #C8C8C8",
" . c gray79",
".. c #CACACA",
"X. c #CECECE",
"o. c gray82",
"O. c gray86",
"+. c #DDDDDD",
"@. c gray88",
"#. c #E2E2E2",
"$. c gray89",
"%. c #E4E4E4",
"&. c gray91",
"*. c gray93",
"=. c #EEEEEE",
"-. c #EFEFEF",
";. c gray94",
":. c #F3F3F3",
">. c #F4F4F4",
",. c #F6F6F6",
"<. c #F9F9F9",
"1. c gray98",
"2. c #FBFBFB",
"3. c gray99",
"4. c #FDFDFD",
"5. c #FEFEFE",
"6. c white",
"7. c None",
/* pixels */
"7.7.7.7.Z Z Z Z Z Z Z Z Z Z Z Z Z Z Z Z Z Z Z C 7.7.7.7.Z Z Z C ",
"7.7.7.7.Z Z Z Z Z Z Z Z Z Z Z Z Z Z Z Z Z Z Z Z 7.7.7.7.C Z Z Z ",
"7.7.7.7.Z Z Z Z V B B B B B B B B B B B B B B B 7.7.7.7.Z Z Z C ",
"7.7.7.7.Z Z C Y { [ [ [ [ [ [ [ [ [ [ [ [ [ [ [ 7.7.7.7.Z Z Z C ",
"7.7.7.7.Z Z V ` 6.6.6.6.6.6.6.6.6.6.6.6.6.6.6.5.7.7.7.7.Z Z Z Z ",
"7.7.7.7.Z Z V _ 6.6.6.6.6.6.6.6.6.6.6.6.6.6.5.4.7.7.7.7.C Z Z Z ",
"7.7.7.7.Z Z V _ 6.6.4.4.6.6.6.6.6.6.6.6.6.6.6.6.7.7.7.7.Z Z Z C ",
"7.7.7.7.Z Z V _ 6.6.5.@.W Q Q Q Q Q Q Q Q Q E W 7.7.7.7.Z Z Z C ",
"7.7.7.7.Z Z V _ 6.6.6.( + O O O O O O O O O O + 7.7.7.7.Z Z Z C ",
"7.7.7.7.Z Z V _ 6.6.6.) @ + + + + + + + + + + O 7.7.7.7.C Z Z Z ",
"7.7.7.7.Z Z V _ 6.6.6./ X . . X + + + O X . . . 7.7.7.7.Z Z Z C ",
"7.7.7.7.Z Z V _ 6.6.5...d d d r # + O ; a d d f 7.7.7.7.Z Z Z C ",
"7.7.7.7.Z Z V _ 6.6.5.4.3.3.6.] % + X w :.4.2.1.7.7.7.7.Z Z Z C ",
"7.7.7.7.Z Z B _ 6.6.6.6.6.6.6.} % + X e ,.6.5.4.7.7.7.7.Z Z Z Z ",
"7.7.7.7.A A C ' 6.6.6.6.6.6.6.{ # o   q ,.6.6.5.7.7.7.7.V V V B ",
"7.7.7.g j j h H ....| o.#.$.%.^ 8 7 6 p O.$.#.+.7.7.7.7.W ! ~ ~ ",
"< < < 1 2 2 2 3 4 4 3 t D D F A B N N V D D D D Z Z C I ;.3.2.<.",
"< < < < < < < < < < , e Z Z Z Z Z Z Z Z Z Z Z Z Z Z C I >.6.5.4.",
"< < < < < < < < < < , r S S A Z V V C C S S A A Z Z Z U :.5.4.3.",
"< < < < < < < < < < , 9 j k j v T R R L l k k z B Z V P -.4.2.7.",
"< < < < < < < < < < 1 ; * * $ i >.<.2. .; & & & 7.7.7.7.7.7.7.7.",
"< < < < < < < < < < 1 - + + . u 2.6.6.X.= O + O 7.7.7.7.7.7.7.7.",
"< < < < < < < < < < 1 - o o   y 1.6.6.X.* o o O 7.7.7.7.7.7.7.7.",
"< < < < < < < < < < 1 1 < < : s &.*.=.{ 5 < < < 7.7.7.7.7.7.7.7.",
"< < < < < < < < < < , 0 n n b M J K K G m n b v 7.7.7.7.7.7.7.7.",
"< < < < < < < < < < , e Z A Z Z Z Z Z Z Z Z Z A 7.7.7.7.7.7.7.7.",
"< 1 1 < < < < < < 1 , e C A Z Z Z Z Z Z A A A A 7.7.7.7.7.7.7.7.",
", < < , > , > > , < , e V A A C Z Z Z N x c x c 7.7.7.7.7.7.7.7.",
"7.7.7.& $ $ # # 7.7.7.7.7.7.7.7.7.7.7.7.> : ; - 7.7.7.7.7.7.7.7.",
"7.7.7.7.+ + + O 7.7.7.7.7.7.7.7.7.7.7.7.O O O O 7.7.7.7.7.7.7.7.",
"7.7.7.7.+ + + o 7.7.7.7.7.7.7.7.7.7.7.7.O + + + 7.7.7.7.7.7.7.7.",
"7.7.7.7.+ + @ + 7.7.7.7.7.7.7.7.7.7.7.7.+ + + @ 7.7.7.7.7.7.7.7."
};
