/* XPM */
static char *result[] = {
/* columns rows colors chars-per-pixel */
"32 32 88 1 ",
"  c gray11",
". c #1E1E1E",
"X c gray12",
"o c #202020",
"O c gray13",
"+ c #222222",
"@ c #232323",
"# c gray14",
"$ c #252525",
"% c gray15",
"& c #272727",
"* c #282828",
"= c gray16",
"- c gray18",
"; c #2F2F2F",
": c gray19",
"> c #313131",
", c #323232",
"< c gray20",
"1 c #343434",
"2 c #353535",
"3 c gray21",
"4 c #373737",
"5 c #434343",
"6 c #444444",
"7 c gray28",
"8 c gray32",
"9 c gray33",
"0 c #555555",
"q c gray35",
"w c #5A5A5A",
"e c #5B5B5B",
"r c gray36",
"t c #5F5F5F",
"y c gray40",
"u c #686868",
"i c gray45",
"p c #747474",
"a c gray47",
"s c gray50",
"d c #808080",
"f c #818181",
"g c gray51",
"h c gray56",
"j c #909090",
"k c gray57",
"l c #929292",
"z c #939393",
"x c gray58",
"c c #959595",
"v c gray60",
"b c #9A9A9A",
"n c gray61",
"m c #A4A4A4",
"M c gray65",
"N c #A7A7A7",
"B c #A9A9A9",
"V c gray67",
"C c gray68",
"Z c #B6B6B6",
"A c gray72",
"S c #B9B9B9",
"D c gray73",
"F c #BBBBBB",
"G c #BCBCBC",
"H c gray76",
"J c #C6C6C6",
"K c #CDCDCD",
"L c LightGray",
"P c gray83",
"I c gray88",
"U c #E6E6E6",
"Y c #E7E7E7",
"T c gray91",
"R c #EAEAEA",
"E c #EEEEEE",
"W c #F3F3F3",
"Q c #F4F4F4",
"! c gray96",
"~ c #F6F6F6",
"^ c #F8F8F8",
"/ c #F9F9F9",
"( c gray98",
") c gray99",
"_ c #FDFDFD",
"` c #FEFEFE",
"' c white",
"] c None",
/* pixels */
"]]]]lllllllllllllllllllllllkk]]]",
"]]]]kllllllllllllllllllllllll]]]",
"]]]]hhhhhhhhhhhhhhhhhhjkklllk]]]",
"]]]]SDDDDDDDDDDDDDDDDDFFmlllk]]]",
"]]]])__________________`Hkllk]]]",
"]]]]_'''''''''''''''''''Hklll]]]",
"]]]]_'`_`'''''''''''`'''Hkllk]]]",
"]]]]_'`^JASSSSSSSSAZI'''Hkllk]]]",
"]]]]`''!q%=========*V'''Hkllk]]]",
"]]]]_''~9XOOOOOOOOOoB'''Hklll]]]",
"]]]]_''Q8 XXO+++oXX.N'''Hklll]]]",
"]]]]_'`Qsqeq,O++7rewG'''Hkllk]]]",
"]]]]`''_!QQErX+@C~QW/'''Hkllk]]]",
"]]]]_''''''(tX+@Z'''''''Hklll]]]",
"]]]]`''''''(t.+@Z'''''''Hjklk]]]",
"]]]]PLLLLLLK0#%&MRTTTTYUAjkl]]]]",
"]]]]655555554<<1anbbbbbv]]]]]]]]",
"]]]],<<<<<<<1112izlllllk]]]]]]]]",
"]]]]<11111111112pcxxxxxz]]]]]]]]",
"]]]]111111111111ydssssss]]]]]]]]",
"]]]]111111111111:-----;-]]]]]]]]",
"]]]]<11111111112*OOOOOOO]]]]]]]]",
"]]]]<11111111111&ooOOOoO]]]]]]]]",
"]]]]111111111112,::::::>]]]]]]]]",
"]]]]111111111112ugffffff]]]]]]]]",
"]]]]<11111111112pxzzzzzz]]]]]]]]",
"]]]]<12111111123izzlllll]]]]]]]]",
"]]]],111<<<<1112izzlklll]]]]]]]]",
"]]]]]]]]&%%$]]]]]]]]]]]]]]]]]]]]",
"]]]]]]]]+++O]]]]]]]]]]]]]]]]]]]]",
"]]]]]]]]O++O]]]]]]]]]]]]]]]]]]]]",
"]]]]]]]]O++@]]]]]]]]]]]]]]]]]]]]"
};
