/* XPM */
static char *result[] = {
/* columns rows colors chars-per-pixel */
"32 32 36 1 ",
"  c #202020",
". c gray13",
"X c #222222",
"o c #232323",
"O c #2C2C2C",
"+ c #2D2D2D",
"@ c gray20",
"# c #343434",
"$ c #3E3E3E",
"% c #3F3F3F",
"& c #414141",
"* c gray26",
"= c gray48",
"- c #7B7B7B",
"; c #838383",
": c #848484",
"> c #8B8B8B",
", c #909090",
"< c gray57",
"1 c #929292",
"2 c #939393",
"3 c gray58",
"4 c gray62",
"5 c gray64",
"6 c #A5A5A5",
"7 c #CECECE",
"8 c gray81",
"9 c #D8D8D8",
"0 c #F1F1F1",
"q c gray95",
"w c #FBFBFB",
"e c gray99",
"r c #FDFDFD",
"t c #FEFEFE",
"y c white",
"u c None",
/* pixels */
"uuuu11111111111111111111111<uuuu",
"uuuu111111111111111111111111uuuu",
"uuuu111111111111111111111111uuuu",
"uuuu111111111111111111111121uuuu",
"uuuu11111111111111111111111<uuuu",
"uuuu111111111111111111111111uuuu",
"uuuu111111111111111111111111uuuu",
"uuuu111111111111111111111121uuuu",
"uuuu11111111111111111111111<uuuu",
"uuuu111111111111111111111111uuuu",
"uuuu111111111111111111111111uuuu",
"uuuu111111111111111111111111uuuu",
"uuuu11111111111111111111111<uuuu",
"uuuu111111111111111111111111uuuu",
"uuuu,,1111111111111111111111uuuu",
"uuuu556411111111111111111111uuuu",
"uuuu0qq82111111111111111111<uuuu",
"uuuuyyy921111111111111111111uuuu",
"uuuwrty932222222222222222222uuuu",
"uuuueey7:;::::::::::::::::;:uuuu",
"uuuuuuuu###################@uuuu",
"uuuuuuuu................... uuuu",
"uuuuuuuu....................uuuu",
"uuuuuuuuO+++++++++++++++++++uuuu",
"uuuuuuuu-------------------=uuuu",
"uuuuuuuu22222222222222222222uuuu",
"uuuuuuuu12211221121112221111uuuu",
"uuuuuuuu<2211121111,>>>><112uuuu",
"uuuuuuuuuuuuuuuuuuuu&%$*uuuuuuuu",
"uuuuuuuuuuuuuuuuuuuu..  uuuuuuuu",
"uuuuuuuuuuuuuuuuuuuuXXXXuuuuuuuu",
"uuuuuuuuuuuuuuuuuuuuXXXouuuuuuuu"
};
