/* XPM */
static char *c45abc6d7c2a48c6bd750c88c5b6e70aBHFJgtJGM8fq7RLk[] = {
/* columns rows colors chars-per-pixel */
"32 32 105 2 ",
"   c None",
".  c #1B1B1B",
"X  c #1D1D1D",
"o  c #1E1E1E",
"O  c gray12",
"+  c #202020",
"@  c gray13",
"#  c #222222",
"$  c gray14",
"%  c #252525",
"&  c gray15",
"*  c #282828",
"=  c gray16",
"-  c #2C2C2C",
";  c gray19",
":  c #313131",
">  c #323232",
",  c gray20",
"<  c #343434",
"1  c #353535",
"2  c gray21",
"3  c #373737",
"4  c #393939",
"5  c #3A3A3A",
"6  c gray23",
"7  c gray24",
"8  c #3E3E3E",
"9  c #3F3F3F",
"0  c #4B4B4B",
"q  c #5D5D5D",
"w  c gray37",
"e  c #5F5F5F",
"r  c #656565",
"t  c gray40",
"y  c #676767",
"u  c #686868",
"i  c DimGray",
"p  c #6A6A6A",
"a  c gray42",
"s  c #6C6C6C",
"d  c #717171",
"f  c gray45",
"g  c #747474",
"h  c #777777",
"j  c gray47",
"k  c #797979",
"l  c gray48",
"z  c #7B7B7B",
"x  c #7E7E7E",
"c  c gray50",
"v  c gray51",
"b  c #848484",
"n  c gray52",
"m  c #868686",
"M  c gray53",
"N  c #888888",
"B  c gray55",
"V  c #8E8E8E",
"C  c gray56",
"Z  c #909090",
"A  c gray57",
"S  c #929292",
"D  c #939393",
"F  c gray58",
"G  c #959595",
"H  c gray59",
"J  c #989898",
"K  c gray61",
"L  c #9D9D9D",
"P  c gray63",
"I  c #A7A7A7",
"U  c gray66",
"Y  c #A9A9A9",
"T  c #AAAAAA",
"R  c gray67",
"E  c #ACACAC",
"W  c #AFAFAF",
"Q  c #B7B7B7",
"!  c gray72",
"~  c #BCBCBC",
"^  c #C0C0C0",
"/  c #C1C1C1",
"(  c gray76",
")  c #C3C3C3",
"_  c #C6C6C6",
"`  c gray79",
"'  c #CACACA",
"]  c #CBCBCB",
"[  c #E1E1E1",
"{  c #E2E2E2",
"}  c gray90",
"|  c #E6E6E6",
" . c #E7E7E7",
".. c #ECECEC",
"X. c gray93",
"o. c gray94",
"O. c gray97",
"+. c #F8F8F8",
"@. c #F9F9F9",
"#. c gray98",
"$. c #FBFBFB",
"%. c gray99",
"&. c #FDFDFD",
"*. c #FEFEFE",
"=. c white",
/* pixels */
"      A A A F A A A A A F A F A A A F A A A A A F A F A         ",
"        A A F A A A F A F A A A F A F A A A F A F A A A         ",
"      A A F A A V V A A A V V V V A A V V V A A A F A A         ",
"      A A A A Y ) ) ) ) ) ) ) ~ ) ~ ) ) ) ) ) ! F A A F         ",
"      A F F A ) %.%.%.%.%.%.%.%.%.%.%.%.%.%.%. .F A A F         ",
"      F A A A ) %.%.%.%.%.%.%.%.%.%.%.%.%.%.%. .J F A A         ",
"      A F A A ) %.%.%.%.%.%.%.%.%.%.%.%.%.%.%. .F F A A         ",
"      A A A A K E E E E E E E E E E E ) %.%.%. .J A F A         ",
"      A A A F q o + + + + % + + + + o q %.%.%. .F F F A         ",
"      A F A F r + + + % + + + % % + + q $.%.%. .F A A A         ",
"      A F A A q o o + + + % + + o + . q $.%.%. .J A F A         ",
"      A A A A x r i i 0 % + + 5 r i r V $.%.%. .F F A F         ",
"      A A A A ) %.%.%.Y + % + i $.%.%.%.%.%.%. .F F A F         ",
"      A F A A ) %.%.%.Y + + + i %.%.%.%.%.%.%. .J A A A         ",
"      A A A A ) %.%.%.Y + o o i %.%.%.%.%.%.%.} J F A F         ",
"        A A A Q } { } P 0 5 5 s ] ] ] ] ] ] ] ! x l l l         ",
"                F F F F A V A d 5 5 5 5 5 5 5 5 1 1 1 1         ",
"                A F A A A A F g 1 1 , 1 1 , , 1 1 1 , ,         ",
"                F F A A A A A d 1 , 1 , , 1 , 1 1 1 , ,         ",
"                l x l V I Y Y v 1 1 , 1 1 , 1 , 1 , 1 ,         ",
"                = = = l $.$.$.! 1 1 , 1 , 1 , 1 1 , 1 ,         ",
"                + + + g %.%.%.~ 1 1 1 , 1 , 1 , , 1 , ,         ",
"                + + o g %.%.%.~ 1 1 , 1 , 1 , 1 1 , 1 ,         ",
"                1 , , x X.X.o.E 1 1 1 , 1 , 1 , , 1 1 1         ",
"                M N N A K K K x 1 , 1 , , 1 , 1 1 , 1 ,         ",
"                F F A A F A A g 1 1 , , 1 , 1 , , 1 , ,         ",
"                A A A A F A F g 1 1 , , , 1 , 1 1 1 , ,         ",
"                F A A V M v N i , , , , , , 1 1 1 , 1 ,         ",
"                        , , 1 - + % % % % % % %                 ",
"                        + + + + % + % + % + + +                 ",
"                        + + + + + + + + % + + +                 ",
"                        % + % + % % + % + % + +                 "
};
