/* XPM */
static char *result[] = {
/* columns rows colors chars-per-pixel */
"32 32 62 1 ",
"  c #202020",
". c gray13",
"X c #222222",
"o c #232323",
"O c gray14",
"+ c #2C2C2C",
"@ c #2D2D2D",
"# c #2F2F2F",
"$ c #323232",
"% c gray20",
"& c #343434",
"* c #353535",
"= c gray21",
"- c gray22",
"; c gray24",
": c #3E3E3E",
"> c #3F3F3F",
", c gray25",
"< c #414141",
"1 c gray26",
"2 c #434343",
"3 c #444444",
"4 c #464646",
"5 c gray28",
"6 c #484848",
"7 c #4B4B4B",
"8 c gray31",
"9 c #6C6C6C",
"0 c #6D6D6D",
"q c gray43",
"w c #6F6F6F",
"e c gray46",
"r c #767676",
"t c #7B7B7B",
"y c #7C7C7C",
"u c #808080",
"i c #818181",
"p c #838383",
"a c #848484",
"s c gray53",
"d c #888888",
"f c #898989",
"g c gray54",
"h c #8B8B8B",
"j c gray55",
"k c #909090",
"l c gray57",
"z c #929292",
"x c #939393",
"c c gray58",
"v c #959595",
"b c gray62",
"n c #9F9F9F",
"m c gray80",
"M c LightGray",
"N c gray83",
"B c gray93",
"V c gray99",
"C c #FDFDFD",
"Z c #FEFEFE",
"A c white",
"S c None",
/* pixels */
"SSSSSSSSzzzzzzzzzzzzzzzzzzzzSSSS",
"SSSSSSSSzzzzzzzzzzzzzzzzzzzzSSSS",
"SSSSSSSSzzzzzzzzzzzzzzzzzzzzSSSS",
"SSSSSSSSzzzzzzzzzzzzzzzzzzzzSSSS",
"zzzlSSSSzzzzzzzzzzzzzzzzzzzzSSSS",
"zzzzSSSSzzzzzzzzzzzzzzzzzzzzSSSS",
"zzzzSSSSzzzzzzzzzzzzzzzzzzzzSSSS",
"zzzzSSSSzzzzzzzzzzzzzzzzzzzzSSSS",
"zzzlSSSSzzzzzzzzzzzzzzzzzzzlSSSS",
"zzzzSSSSzzzzzzzzzzzzzzzzzzzzSSSS",
"zzzzSSSSzzzzzzzzzzzzzzzzzzzzSSSS",
"zzzzSSSSzzzzzzzzzzzzzzzzzzzzSSSS",
"zzzlSSSSzzzzzzzzzzzzzzzzzzzlSSSS",
"zzzzSSSSzzzzzzzzzzzzzzzzzzzzSSSS",
"zzzzSSSSzzzzzzzzzzzzzzzzzzzzSSSS",
"zzxzSSSSzzzzzzzzzzzzzzzzzzzkSSSS",
"zzzlSSSSzzzzzzzzzzzzzzzzzzxf3%*&",
"zzzzSSSSzzzzzzzzzzzzzzzzzzzs2%&*",
"kkllSSSSxxxxxxxxxxxxxxxxxxcf1%&*",
"nnnbSSSSpaaaaaaaaaaaaaaaaaay7,,<",
"BBBmxzcw=&&&&&&&&&&&&&&&&&%;rapp",
"AAANxzc9O................. @icxx",
"ZZANxxv0O ................ @uxxx",
"CVCMxzcq#@@@@@@@@@@@@@@@@@+-tgff",
"SSSSSSSSttttttttttttttttttye8566",
"SSSSSSSSxxxxxxxxxxxxxxxxxxxd1$%%",
"SSSSSSSSxxxxzxxzzxxzzxxxzzxd2%**",
"SSSSSSSShhhjlzxzzzxzzzxzzzxd2%&%",
"SSSSSSSS>>:4SSSSSSSSSSSSSSSSSSSS",
"SSSSSSSS..  SSSSSSSSSSSSSSSSSSSS",
"SSSSSSSSXXXXSSSSSSSSSSSSSSSSSSSS",
"SSSSSSSSXXXoSSSSSSSSSSSSSSSSSSSS"
};
