/* XPM */
static char *result[] = {
/* columns rows colors chars-per-pixel */
"32 32 102 2 ",
"   c gray11",
".  c #1D1D1D",
"X  c #1E1E1E",
"o  c gray12",
"O  c #202020",
"+  c gray13",
"@  c #222222",
"#  c #232323",
"$  c #252525",
"%  c gray15",
"&  c #272727",
"*  c gray16",
"=  c gray18",
"-  c #2F2F2F",
";  c gray19",
":  c #313131",
">  c #323232",
",  c gray20",
"<  c #343434",
"1  c #353535",
"2  c gray21",
"3  c #373737",
"4  c #393939",
"5  c #3A3A3A",
"6  c #3F3F3F",
"7  c #434343",
"8  c #444444",
"9  c #484848",
"0  c #505050",
"q  c gray32",
"w  c #535353",
"e  c gray34",
"r  c #585858",
"t  c gray35",
"y  c #5A5A5A",
"u  c #5B5B5B",
"i  c gray36",
"p  c gray37",
"a  c #686868",
"s  c #717171",
"d  c #727272",
"f  c #767676",
"g  c #7E7E7E",
"h  c gray50",
"j  c #808080",
"k  c #818181",
"l  c gray51",
"z  c gray53",
"x  c #888888",
"c  c #898989",
"v  c #8E8E8E",
"b  c gray56",
"n  c #909090",
"m  c gray57",
"M  c #929292",
"N  c #939393",
"B  c gray58",
"V  c gray60",
"C  c #9A9A9A",
"Z  c #9F9F9F",
"A  c #A2A2A2",
"S  c gray64",
"D  c #A4A4A4",
"F  c gray66",
"G  c #AAAAAA",
"H  c gray67",
"J  c #AEAEAE",
"K  c #B6B6B6",
"L  c #B7B7B7",
"P  c #B9B9B9",
"I  c gray73",
"U  c #BBBBBB",
"Y  c #BCBCBC",
"T  c gray74",
"R  c gray76",
"E  c #C3C3C3",
"W  c #C5C5C5",
"Q  c #D2D2D2",
"!  c LightGray",
"~  c gray83",
"^  c gray88",
"/  c #E2E2E2",
"(  c gray89",
")  c #E7E7E7",
"_  c gray91",
"`  c #EFEFEF",
"'  c gray94",
"]  c #F1F1F1",
"[  c gray95",
"{  c #F3F3F3",
"}  c #F4F4F4",
"|  c gray96",
" . c #F6F6F6",
".. c gray97",
"X. c #F9F9F9",
"o. c gray98",
"O. c #FBFBFB",
"+. c gray99",
"@. c #FDFDFD",
"#. c #FEFEFE",
"$. c white",
"%. c None",
/* pixels */
"%.%.%.%.M M M M M M M M M M M M M M M M M M M M %.%.%.%.M M M M ",
"%.%.%.%.M M M M M M M M M M M M M M M M M M M M %.%.%.%.m M M M ",
"%.%.%.%.b b b b b b b b b b b b b b b b b b n n %.%.%.%.M M M M ",
"%.%.%.%.I I I I I I I I I I I I I I I I I I U Y %.%.%.%.M M M M ",
"%.%.%.%.@.@.@.@.@.@.@.@.@.@.@.@.@.@.@.@.@.@.@.O.%.%.%.%.M M M M ",
"%.%.%.O.#.$.$.$.$.$.$.$.$.$.$.$.$.$.$.$.$.$.#.@.%.%.%.%.m M M M ",
"%.%.%.+.$.$.@.@.$.$.$.$.$.$.$.$.$.$.$.$.#.$.#.@.%.%.%.%.M M M M ",
"%.%.%.+.$.$.@.^ L P P P P P P P P P K W o.$.#.+.%.%.%.%.M M M M ",
"%.%.%.%.$.$.$.H & * * * * * * * * * $ e | $.#.+.%.%.%.%.M M M M ",
"%.%.%.O.#.$.$.G o + + + + + + + + + X q  .$.#.@.%.%.%.%.M M M M ",
"%.%.%.+.$.$.$.F . o o O @ @ @ + o o   0 | $.#.@.%.%.%.%.M M M M ",
"%.%.%.+.$.$.$.T y u i 9 @ @ + ; y i t g  .$.#.@.%.%.%.%.M M M M ",
"%.%.%.%.$.$.#.X.{ } ..J @ @ o y ` } { | @.$.#.+.%.%.%.%.M M M M ",
"%.%.%.%.#.$.$.$.$.$.$.L # @ X p O.$.$.$.$.$.#.+.%.%.%.%.M M M M ",
"%.%.%.$.$.$.$.$.$.$.$.K + O . i o.$.$.$.$.$.$.#.%.%.%.%.m m M M ",
"%.%.J Q ~ ! ! ! ! ! ! Z 5 5 3 a ( _ _ _ _ _ ) / %.%.%.%.m m m M ",
"< < 6 8 7 7 7 7 7 7 7 y c c c v C C C C C C C V N M M m %.%.%.%.",
"< < , , , , , , , , > w M N N M M M M M M M M M M M M M %.%.%.%.",
"< < < < < < < < < < , q n n m m N B B B B B N N M M N M %.%.%.%.",
"< < < < < < < < < < > t S S D C j h h h h h h k n M m M %.%.%.%.",
"< < < < < < < < < < : d [ { | Y > = = = = = = - %.%.%.%.%.%.%.%.",
"< < < < < < < < < < : f #.$.$.E % + + + + + + O %.%.%.%.%.%.%.%.",
"< < < < < < < < < < : f #.$.$.R $ O + + + + + + %.%.%.%.%.%.%.%.",
"< < < < < < < < < < : s ' ] [ U < ; ; ; ; ; : ; %.%.%.%.%.%.%.%.",
"< < < < < < < < < < , r A A A V l k k k k k k j %.%.%.%.%.%.%.%.",
"< < < < < < < < < < , w m m m M N N N N N N N N %.%.%.%.%.%.%.%.",
"< < 1 < < < < < < < , w m M M M M M M M N N N N %.%.%.%.%.%.%.%.",
"< < < , , , , , < < , w m N N m m M M b x z z x %.%.%.%.%.%.%.%.",
"%.%.%.* % % $ $ %.%.%.%.%.%.%.%.%.%.%.%.4 3 3 2 %.%.%.%.%.%.%.%.",
"%.%.%.%.@ @ + + %.%.%.%.%.%.%.%.%.%.%.%.+ + + O %.%.%.%.%.%.%.%.",
"%.%.%.%.+ @ @ @ %.%.%.%.%.%.%.%.%.%.%.%.+ @ @ + %.%.%.%.%.%.%.%.",
"%.%.%.%.+ @ # @ %.%.%.%.%.%.%.%.%.%.%.%.+ @ @ @ %.%.%.%.%.%.%.%."
};
