/* XPM */
static char *result[] = {
/* columns rows colors chars-per-pixel */
"32 32 55 1 ",
"  c gray12",
". c #202020",
"X c gray13",
"o c #222222",
"O c #232323",
"+ c #2C2C2C",
"@ c #2D2D2D",
"# c gray19",
"$ c #313131",
"% c gray20",
"& c #343434",
"* c #353535",
"= c #3A3A3A",
"- c #3C3C3C",
"; c gray24",
": c #3E3E3E",
"> c #3F3F3F",
", c gray25",
"< c #414141",
"1 c gray28",
"2 c #484848",
"3 c #4C4C4C",
"4 c #747474",
"5 c #7B7B7B",
"6 c #7C7C7C",
"7 c gray50",
"8 c #808080",
"9 c #838383",
"0 c #848484",
"q c gray52",
"w c #868686",
"e c gray53",
"r c #898989",
"t c #8B8B8B",
"y c gray55",
"u c gray56",
"i c #909090",
"p c gray57",
"a c #929292",
"s c #939393",
"d c gray58",
"f c #A0A0A0",
"g c gray64",
"h c #A4A4A4",
"j c gray79",
"k c #CDCDCD",
"l c #CECECE",
"z c gray81",
"x c #F1F1F1",
"c c gray95",
"v c gray99",
"b c #FDFDFD",
"n c #FEFEFE",
"m c white",
"M c None",
/* pixels */
"aaaaMMMMaaaaaaaaaaaaaaaaaaapMMMM",
"aaaaMMMMaaaaaaaaaaaaaaaaaaaaMMMM",
"aaapMMMMaaaaaaaaaaaaaaaaaaaaMMMM",
"aaapMMMMaaaaaaaaaaaaaaaaaaaaMMMM",
"aaaaMMMMaaaaaaaaaaaaaaaaaaapMMMM",
"aaaaMMMMaaaaaaaaaaaaaaaaaaaaMMMM",
"aaapMMMMaaaaaaaaaaaaaaaaaaaaMMMM",
"aaaaMMMMaaaaaaaaaaaaaaaaaasaMMMM",
"aaapMMMMaaaaaaaaaaaaaaaaaaapMMMM",
"aaaaMMMMaaaaaaaaaaaaaaaaaaaaMMMM",
"aaapMMMMaaaaaaaaaaaaaaaaaaaaMMMM",
"aasaMMMMaaaaaaaaaaaaaaaaaasaMMMM",
"aaapMMMMaaaaaaaaaaaaaaaaaaapMMMM",
"aaaaMMMMaaaaaaaaaaaaaaaaaaaaMMMM",
"iippMMMMaaaaaaaaaaaaaaaaaaaaMMMM",
"gghfMMMMaaaaaaaaaaaaaaaaaaauMMMM",
"cxcjpaaaaaaaaaaaaaaaaaaaaase>%*&",
"mmmziaaaaaaaaaaaaaaaaaaaaaaq;&*&",
"nnmlisaassssssssssssssssssdw;%&*",
"bvbkiaay900000000000000000051<,<",
"MMMMMMMM&&&&&&&&&&&&&&&&&&%:5999",
"MMMMMMMMXXXXXXXXXXXXXXXXXX.#esas",
"MMMMMMMMXXXXXXXXXXXXXXXXXX $esss",
"MMMMMMMM@@@@@@@@@@@@@@@@@@+=8rrr",
"MMMMMMMM555555555555555555643122",
"MMMMMMMMssssssssssssssssssdw-%&%",
"MMMMMMMMassaassaassaaaaaassw;%**",
"MMMMMMMMtttyasspassaaaaittt7;&&&",
"MMMMMMMM>>:1MMMMMMMMMMMM<>>:MMMM",
"MMMMMMMMXX. MMMMMMMMMMMMXXX.MMMM",
"MMMMMMMMooooMMMMMMMMMMMMooooMMMM",
"MMMMMMMMoooOMMMMMMMMMMMMoooOMMMM"
};
