/* XPM */
static char *_713a052e9064773d0d5bcf3e42ea353glRofneoC8FqDAH6[] = {
/* columns rows colors chars-per-pixel */
"32 32 116 2 ",
"   c None",
".  c #1D1D1D",
"X  c #1E1E1E",
"o  c gray12",
"O  c #202020",
"+  c gray13",
"@  c #222222",
"#  c #232323",
"$  c gray14",
"%  c #252525",
"&  c gray15",
"*  c #282828",
"=  c gray16",
"-  c gray17",
";  c gray18",
":  c gray19",
">  c #313131",
",  c #323232",
"<  c gray20",
"1  c #343434",
"2  c #353535",
"3  c #373737",
"4  c #393939",
"5  c #3A3A3A",
"6  c gray23",
"7  c #3C3C3C",
"8  c #3F3F3F",
"9  c gray26",
"0  c gray29",
"q  c gray31",
"w  c #515151",
"e  c gray32",
"r  c #535353",
"t  c gray33",
"y  c #585858",
"u  c gray36",
"i  c gray37",
"p  c #606060",
"a  c #626262",
"s  c gray39",
"d  c #656565",
"f  c #676767",
"g  c #686868",
"h  c #797979",
"j  c gray48",
"k  c #7B7B7B",
"l  c gray49",
"z  c #7E7E7E",
"x  c #848484",
"c  c gray52",
"v  c #868686",
"b  c gray53",
"n  c #888888",
"m  c #898989",
"M  c #8D8D8D",
"N  c #8E8E8E",
"B  c gray56",
"V  c #909090",
"C  c gray57",
"Z  c #929292",
"A  c #939393",
"S  c gray58",
"D  c #959595",
"F  c gray59",
"G  c #979797",
"H  c gray60",
"J  c #9B9B9B",
"K  c gray61",
"L  c #9D9D9D",
"P  c #9F9F9F",
"I  c #A0A0A0",
"U  c gray63",
"Y  c #A5A5A5",
"T  c #A7A7A7",
"R  c gray66",
"E  c #AAAAAA",
"W  c gray67",
"Q  c #ACACAC",
"!  c gray68",
"~  c #AEAEAE",
"^  c #B4B4B4",
"/  c gray71",
"(  c #B6B6B6",
")  c #B7B7B7",
"_  c #BBBBBB",
"`  c #BCBCBC",
"'  c gray74",
"]  c #C0C0C0",
"[  c #C1C1C1",
"{  c gray76",
"}  c #C3C3C3",
"|  c #C8C8C8",
" . c gray79",
".. c #CACACA",
"X. c #CECECE",
"o. c gray82",
"O. c gray86",
"+. c #DDDDDD",
"@. c gray88",
"#. c #E2E2E2",
"$. c gray89",
"%. c #E4E4E4",
"&. c gray91",
"*. c gray93",
"=. c #EEEEEE",
"-. c gray94",
";. c #F3F3F3",
":. c #F4F4F4",
">. c #F6F6F6",
",. c #F9F9F9",
"<. c gray98",
"1. c #FBFBFB",
"2. c gray99",
"3. c #FDFDFD",
"4. c #FEFEFE",
"5. c white",
/* pixels */
"C C C S         C C C C S C C C S S C C C C S S C C C S         ",
"C C C C         C C S C S C C C C C C S C C C C C S C S         ",
"C C C C         B B C C C B B B B B C B C B C C C C C C         ",
"C S S S         [ [ [ } [ [ [ [ [ [ [ [ [ [ [ } T C S C         ",
"C C C S         2.2.2.2.2.2.2.2.2.2.2.2.2.2.2.2.' C C S         ",
"S S C C         2.2.2.2.2.2.2.2.2.2.2.2.2.2.2.2._ C C C         ",
"C C C C         2.2.2.2.2.2.2.2.2.2.2.2.2.2.2.2._ C S C         ",
"C C C S         ! ! ! ! ! ! E ! ! ! ! ! $.2.2.2._ C C C         ",
"C C S C         $ @ @ @ @ @ . @ @ @ @ @ _ 2.2.2._ B C C         ",
"S C C C         @ @ @ @ @ @ @ @ @ @ @ $ ) 2.2.2._ C S C         ",
"C S S C         . . . . @ @ @ $ . . . . ) 2.2.2._ C C C         ",
"C C C S         g f f s : @ @ $ t g f f X.2.2.2._ B C C         ",
"C C C C         1.2.2.>.r . @ $ [ 2.2.2.2.2.2.2._ C S C         ",
"S C C C         2.2.2.>.r @ $ $ [ 2.2.2.2.2.2.2._ C C C         ",
"C C C C         2.2.2.>.r . . @ } 2.2.2.2.2.2.2.' C C S         ",
"! ! ! E         +.%.%.+.s 5 9 9 ) %.%.%.o. .X. .H j j l g       ",
"1.2.2.=.U C C C S S S S C B B B C S S S y 5 5 5 5 2 5 2 2 2 : 2 ",
"2.2.2.>.U C S S S C S C C C C C C S S S t : 2 2 : 2 : 2 2 2 2 2 ",
"2.2.2.>.U C C C S C S S C C C B C C S S t 2 2 2 2 2 : 2 : 2 2 : ",
"  2.2.-.L C C C l l j l L E T T b j l j 0 : 2 2 2 2 2 2 2 2 2 2 ",
"                * * * :  .2.1.>.s $ * * : 2 2 : 2 2 2 2 2 : 2 2 ",
"                @ @ @ ; o.2.2.2.i . @ @ ; 2 2 2 2 2 : 2 2 2 2 2 ",
"                @ . . * X.2.2.1.i . @ @ ; 2 2 2 : 2 : 2 2 : : 2 ",
"                2 2 2 7 [ =.=.&.f ; : 2 2 2 2 : 2 2 2 2 2 2 2 2 ",
"                b b m m H H L L B m m m r : 2 : 2 : : 2 2 : 2 2 ",
"                C C C C S C C C C C C C r 2 2 2 2 2 2 2 2 2 2 2 ",
"                C C S C C C S S C C S C r : 2 2 2 2 2 2 2 2 2 : ",
"                b x b b B C C C C S C B r 2 2 : : : 2 : : 2 : 2 ",
"                ; ; : :                         $ $ $ $ *       ",
"                @ @ @ @                         @ @ $ @         ",
"                @ @ @ @                         @ @ @ @         ",
"                @ @ @ @                         @ @ @ $         "
};
