/* XPM */
static char *result[] = {
/* columns rows colors chars-per-pixel */
"32 32 112 2 ",
"   c gray11",
".  c #1D1D1D",
"X  c #1E1E1E",
"o  c gray12",
"O  c #202020",
"+  c gray13",
"@  c #222222",
"#  c #232323",
"$  c gray15",
"%  c #272727",
"&  c gray16",
"*  c #2C2C2C",
"=  c #2D2D2D",
"-  c gray18",
";  c gray19",
":  c gray20",
">  c #343434",
",  c #353535",
"<  c gray21",
"1  c #373737",
"2  c gray22",
"3  c #3A3A3A",
"4  c #414141",
"5  c gray26",
"6  c #434343",
"7  c #444444",
"8  c gray27",
"9  c gray29",
"0  c gray35",
"q  c #5A5A5A",
"w  c #5B5B5B",
"e  c gray36",
"r  c #5F5F5F",
"t  c #606060",
"y  c #626262",
"u  c gray40",
"i  c #676767",
"p  c DimGray",
"a  c #727272",
"s  c gray45",
"d  c #747474",
"f  c gray46",
"g  c gray50",
"h  c #808080",
"j  c #818181",
"k  c gray51",
"l  c #838383",
"z  c #848484",
"x  c gray53",
"c  c #888888",
"v  c #898989",
"b  c gray54",
"n  c #8B8B8B",
"m  c #8D8D8D",
"M  c gray56",
"N  c #909090",
"B  c gray57",
"V  c #929292",
"C  c #939393",
"Z  c gray58",
"A  c #9A9A9A",
"S  c #9B9B9B",
"D  c #9F9F9F",
"F  c gray63",
"G  c #A2A2A2",
"H  c gray64",
"J  c #A4A4A4",
"K  c #A5A5A5",
"L  c gray65",
"P  c #A7A7A7",
"I  c gray68",
"U  c #AEAEAE",
"Y  c gray71",
"T  c #B6B6B6",
"R  c #B7B7B7",
"E  c gray72",
"W  c #B9B9B9",
"Q  c gray73",
"!  c #BBBBBB",
"~  c gray75",
"^  c #C0C0C0",
"/  c #C1C1C1",
"(  c gray77",
")  c #C5C5C5",
"_  c #C8C8C8",
"`  c #CDCDCD",
"'  c #CECECE",
"]  c LightGray",
"[  c gray83",
"{  c #DDDDDD",
"}  c gray90",
"|  c #E7E7E7",
" . c gray91",
".. c #E9E9E9",
"X. c #EEEEEE",
"o. c #EFEFEF",
"O. c gray94",
"+. c #F1F1F1",
"@. c gray95",
"#. c #F3F3F3",
"$. c #F4F4F4",
"%. c gray96",
"&. c #F6F6F6",
"*. c gray97",
"=. c #F8F8F8",
"-. c gray98",
";. c #FBFBFB",
":. c gray99",
">. c #FDFDFD",
",. c #FEFEFE",
"<. c white",
"1. c None",
/* pixels */
"1.1.1.1.V V V V V V V V V V V V V V V V V V V V 1.1.1.1.1.1.1.1.",
"1.1.1.1.B V V V V V V V V V V V V V V V V V V V 1.1.1.1.1.1.1.1.",
"1.1.1.1.M M M M M M M M M M M M M M M M M M M N 1.1.1.1.1.1.1.1.",
"1.1.1.1.W Q Q Q Q Q Q Q Q Q Q Q Q Q Q Q Q Q ! ! / 1.1.1.1.1.1.1.",
"1.1.1.1.:.>.>.>.>.>.>.>.>.>.>.>.>.>.>.>.>.>.>.:.;.1.1.1.1.V V V ",
"1.1.1.1.>.<.<.<.<.<.<.<.<.<.<.<.<.<.<.<.<.<.<.,.:.1.1.1.1.V V V ",
"1.1.1.1.>.<.,.:.,.<.<.<.<.<.<.<.<.<.<.<.,.<.<.,.1.1.1.1.1.V V V ",
"1.1.1.1.>.<.,.=._ E W W W W W W W W E T { <.<.,.:.1.1.1.1.V V V ",
"1.1.1.1.,.<.<.%.r $ & & & & & & & & & % H <.<.>.:.1.1.1.1.V V V ",
"1.1.1.1.>.<.<.*.w o + + + + + + + + + O F <.<.>.:.1.1.1.1.V V V ",
"1.1.1.1.>.<.<.%.0   o o + @ @ @ O o o X D <.<.,.1.1.1.1.1.V V V ",
"1.1.1.1.>.<.,.%.z 0 w q > + @ @ 8 e w q R <.<.,.1.1.1.1.1.V V V ",
"1.1.1.1.,.<.<.>.%.#.$.o.y o @ # L &.$.#.=.<.<.>.1.1.1.1.1.V V V ",
"1.1.1.1.,.<.<.<.<.<.<.;.i o @ # U <.<.<.<.<.<.>.1.1.1.1.1.V V V ",
"1.1.1.1.<.<.<.<.<.<.<.-.u . O @ I <.<.<.<.<.<.,.1.1.1.1.1.V V V ",
"1.1.1.1.' [ ] ] ] ] ] ` p 2 3 3 P .. . . . .| } 1.1.1.1.1.V V V ",
"> > > 2 5 7 6 6 6 6 7 8 s b v v Z S A A A A A A 1.1.1.1.1.V V V ",
": > > > : : : : : : : , f Z C V V V V V V V B V 1.1.1.1.1.V V V ",
": > > > > > > > > > > < d B N B V Z Z Z Z Z Z C 1.1.1.1.1.N N N ",
"> > > > > > > > > > > < j K H H m g g g g g g g k 1.1.1.D H J J ",
"> > > > > > > > > > > 2 R %.#.+.f * - - - - - = r V V N ^ @.#.@.",
": > > > > > > > > > > 2 ^ <.<.,.a o + + + + + O w V V N ( <.<.,.",
": > > > > > > > > > > 2 ~ <.<.,.a X + + + O + o e C C B ( ,.>.>.",
"> > > > > > > > > > > 2 Y #.O.X.f - ; ; ; ; ; ; t V V N ) :.:.;.",
"> > > > > > > > > > > < h H G G m j j j j j j j l 1.1.1.1.1.1.1.",
": > > > > > > > > > > < d V B B V C C C C C C C 1.1.1.1.1.1.1.1.",
": > > , > > > , > > , 1 f Z C V V C C C V V V V 1.1.1.1.1.1.1.1.",
": > , , > > , , > > > 1 d Z V V n x c x m V V V 1.1.1.1.1.1.1.1.",
"1.1.1.1.1.1.1.1.1.1.1.1.1.1.1.1.4 1 2 1 9 1.1.1.1.1.1.1.1.1.1.1.",
"1.1.1.1.1.1.1.1.1.1.1.1.1.1.1.1.+ + + O 1.1.1.1.1.1.1.1.1.1.1.1.",
"1.1.1.1.1.1.1.1.1.1.1.1.1.1.1.1.+ @ @ @ 1.1.1.1.1.1.1.1.1.1.1.1.",
"1.1.1.1.1.1.1.1.1.1.1.1.1.1.1.1.+ @ @ # 1.1.1.1.1.1.1.1.1.1.1.1."
};
