/* XPM */
static char *result[] = {
/* columns rows colors chars-per-pixel */
"32 32 105 2 ",
"   c #1B1B1B",
".  c #1D1D1D",
"X  c #1E1E1E",
"o  c gray12",
"O  c #202020",
"+  c gray13",
"@  c #222222",
"#  c gray14",
"$  c #252525",
"%  c gray15",
"&  c #282828",
"*  c gray16",
"=  c #2C2C2C",
"-  c gray19",
";  c #313131",
":  c #323232",
">  c gray20",
",  c #343434",
"<  c #353535",
"1  c gray21",
"2  c #373737",
"3  c #393939",
"4  c #3A3A3A",
"5  c gray23",
"6  c gray24",
"7  c #3E3E3E",
"8  c #3F3F3F",
"9  c #4B4B4B",
"0  c #5D5D5D",
"q  c gray37",
"w  c #5F5F5F",
"e  c #656565",
"r  c gray40",
"t  c #676767",
"y  c #686868",
"u  c DimGray",
"i  c #6A6A6A",
"p  c gray42",
"a  c #6C6C6C",
"s  c #717171",
"d  c gray45",
"f  c #747474",
"g  c #777777",
"h  c gray47",
"j  c #797979",
"k  c gray48",
"l  c #7B7B7B",
"z  c #7E7E7E",
"x  c gray50",
"c  c gray51",
"v  c #848484",
"b  c gray52",
"n  c #868686",
"m  c gray53",
"M  c #888888",
"N  c gray55",
"B  c #8E8E8E",
"V  c gray56",
"C  c #909090",
"Z  c gray57",
"A  c #929292",
"S  c #939393",
"D  c gray58",
"F  c #959595",
"G  c gray59",
"H  c #989898",
"J  c gray61",
"K  c #9D9D9D",
"L  c gray63",
"P  c #A7A7A7",
"I  c gray66",
"U  c #A9A9A9",
"Y  c #AAAAAA",
"T  c gray67",
"R  c #ACACAC",
"E  c #AFAFAF",
"W  c #B7B7B7",
"Q  c gray72",
"!  c #BCBCBC",
"~  c #C0C0C0",
"^  c #C1C1C1",
"/  c gray76",
"(  c #C3C3C3",
")  c #C6C6C6",
"_  c gray79",
"`  c #CACACA",
"'  c #CBCBCB",
"]  c #E1E1E1",
"[  c #E2E2E2",
"{  c gray90",
"}  c #E6E6E6",
"|  c #E7E7E7",
" . c #ECECEC",
".. c gray93",
"X. c gray94",
"o. c gray97",
"O. c #F8F8F8",
"+. c #F9F9F9",
"@. c gray98",
"#. c #FBFBFB",
"$. c gray99",
"%. c #FDFDFD",
"&. c #FEFEFE",
"*. c white",
"=. c None",
/* pixels */
"=.=.=.=.A A A A A A A A A A A A A A A A A A A A A A A A Z =.=.=.",
"=.=.=.=.Z A A A A A A A A A A A A A A A A A A A A A A A =.=.=.=.",
"=.=.=.=.A A A A Z V V V V V V V V V V V V V V Z Z A A A Z =.=.=.",
"=.=.=.=.A A A D W / ^ ^ ^ ^ ^ ^ ^ ^ ^ ^ ^ ^ ^ / I A A A Z =.=.=.",
"=.=.=.=.A A A G } *.*.*.*.*.*.*.*.*.*.*.*.*.*.*.( Z A A Z =.=.=.",
"=.=.=.=.Z A A G } *.*.*.*.*.*.*.*.*.*.*.*.*.*.*./ Z A A S =.=.=.",
"=.=.=.=.A A A G } *.&.$.&.*.*.*.*.*.*.*.*.*.*.*.( Z A A Z =.=.=.",
"=.=.=.=.A A A G } *.&.+.~ T R R R R R R R R R Y J A A A Z =.=.=.",
"=.=.=.=.A A A G } *.*.+.q X + + + + + + + + + O w S A A Z =.=.=.",
"=.=.=.=.Z A A G } *.*.@.w o @ @ @ @ @ @ @ @ @ + w S A A S =.=.=.",
"=.=.=.=.A A A G } *.&.O.0   o X O @ @ @ O X o . q S A A Z =.=.=.",
"=.=.=.=.A A A G } *.&.o.V e t r 3 + @ @ 9 y t r x A A A Z =.=.=.",
"=.=.=.=.A A A G } *.*.&.$.$.$.@.u o @ + P *.$.$.^ Z A A Z =.=.=.",
"=.=.=.=.Z A A G } *.*.*.*.*.*.&.p o @ + U *.*.*./ Z A A S =.=.=.",
"=.=.=.=.S S S H | *.*.*.*.*.*.%.i . O o I *.*.*./ C Z A Z =.=.=.",
"=.=.=.=.j j k z Q ' ` ` ` ` _ ) a 6 8 7 L { [ ] W C Z A =.=.=.=.",
"=.=.=.=.1 2 2 2 4 4 4 4 4 4 4 5 d C B V S F F F =.=.=.=.=.=.=.=.",
"=.=.=.=.> , , , , , , , , , , < d D A A A A A Z =.=.=.=.=.=.=.=.",
"=.=.=.=.> , , , , , , , , , , < s Z C Z A D D D =.=.=.=.=.=.=.=.",
"=.=.=.=., , , , , , , , , , , < c U I P N k l l =.=.=.=.=.=.=.=.",
"=.=.=.=., , , , , , , , , , , 1 W #.O.O.h % * & =.=.=.=.=.=.=.=.",
"=.=.=.=.> , , , , , , , , , , 1 ! *.*.*.h o @ + =.=.=.=.=.=.=.=.",
"=.=.=.=.> , , , , , , , , , , 1 ! *.*.*.g . O + =.=.=.=.=.=.=.=.",
"=.=.=.=., , , , , , , , , , , < E X... .k : , , =.=.=.=.=.=.=.=.",
"=.=.=.=., , , , , , , , , , , < k K J J C M M m =.=.=.=.=.=.=.=.",
"=.=.=.=.> , , , , , , , , , , < d S A A A S A S =.=.=.=.=.=.=.=.",
"=.=.=.=., , < , , , , , , , , 1 f F S S A A A A =.=.=.=.=.=.=.=.",
"=.=.=.=.: , , < > > : : : > > : u n b v N A A A =.=.=.=.=.=.=.=.",
"=.=.=.=.=.=.=.=.% $ $ # $ $ # # = ; ; - =.=.=.=.=.=.=.=.=.=.=.=.",
"=.=.=.=.=.=.=.=.+ @ @ @ @ @ @ @ + + + + =.=.=.=.=.=.=.=.=.=.=.=.",
"=.=.=.=.=.=.=.=.+ @ @ @ @ @ @ @ @ @ @ + =.=.=.=.=.=.=.=.=.=.=.=.",
"=.=.=.=.=.=.=.=.+ @ @ @ @ @ @ @ @ @ @ @ =.=.=.=.=.=.=.=.=.=.=.=."
};
