/* XPM */
static char *result[] = {
/* columns rows colors chars-per-pixel */
"32 32 109 2 ",
"   c #000000",
".  c #090102",
"X  c #04050A",
"o  c #0B060B",
"O  c #00080E",
"+  c #150504",
"@  c #1E0101",
"#  c #180803",
"$  c #070710",
"%  c #000A12",
"&  c #0A0B16",
"*  c #0C0D1B",
"=  c #1E0F12",
"-  c #110D1E",
";  c #0F111E",
":  c #2F0202",
">  c #3F0202",
",  c #34060D",
"<  c #0E0F21",
"1  c #110F21",
"2  c #001220",
"3  c #0D1122",
"4  c #001629",
"5  c #0D152D",
"6  c #111225",
"7  c #14152C",
"8  c #16192D",
"9  c #001F38",
"0  c #161631",
"q  c #171832",
"w  c #191B35",
"e  c #1B1C3D",
"r  c #2C162E",
"t  c #3D1021",
"y  c #1D213B",
"u  c #530505",
"i  c #580201",
"p  c #490711",
"a  c #520C1E",
"s  c #580E1E",
"d  c #7E0C1D",
"f  c #451533",
"g  c #6A122A",
"h  c #75132A",
"j  c #601631",
"k  c #6E1733",
"l  c #753128",
"z  c #1D1E42",
"x  c #211E41",
"c  c #1D2044",
"v  c #112449",
"b  c #002D52",
"n  c #00325C",
"m  c #212445",
"M  c #22264B",
"N  c #28274B",
"B  c #25294E",
"V  c #2B284C",
"C  c #332B4D",
"Z  c #2A2D54",
"A  c #362E54",
"S  c #2D325C",
"D  c #3E3B57",
"F  c #31345D",
"G  c #39345B",
"H  c #003561",
"J  c #003C6E",
"K  c #113261",
"L  c #003D70",
"P  c #2E3A68",
"I  c #333965",
"U  c #383862",
"Y  c #353C69",
"T  c #53284A",
"R  c #4F2E52",
"E  c #622042",
"W  c #BC3A17",
"Q  c #B83319",
"!  c #8B0E20",
"~  c #940F23",
"^  c #941026",
"/  c #97102A",
"(  c #9D1229",
")  c #A20F26",
"_  c #A31026",
"`  c #A91525",
"'  c #AC1A24",
"]  c #B11E23",
"[  c #AF2126",
"{  c #B32223",
"}  c #B82722",
"|  c #BC2B21",
" . c #BF3B24",
".. c #C6361F",
"X. c #C9361F",
"o. c #CB3C1E",
"O. c #C02F20",
"+. c #C33320",
"@. c #D4451C",
"#. c #D7491C",
"$. c #DA491B",
"%. c #D14D24",
"&. c #B73F4C",
"*. c #824041",
"=. c #004B8A",
"-. c #004F91",
";. c #005195",
":. c #E8A28D",
">. c None",
/* pixels */
">.>.>.>.>.>.>.>.>.>.+.) _ >.>.>.>.>.>.@.$.#.>.>.>.>.>.>.>.>.>.>.",
">.>.>.>._ >.>.>.>.+.` _ _ >.>.z z >.>.` +.$.#.>.>.>.>.) >.>.>.>.",
">.>.>.>._ _ ) O.+.` ) _ >.>.F z z z >.>.` +.#.$.| ) ) ) >.>.>.>.",
">.>.>.>._ _ _ ` ` ) _ >.>.>.>.S c >.>.>.>.' ' +.#.| ) ) >.>.>.>.",
">.) >.#.' ) _ ) ) _ >.>.>.>.>.M z >.>.>.>.>.) ` { | | ) _ >._ >.",
">.) ( @.{ _ _ _ _ >.>.>.>.>.I S c z >.>.>.>.>.) ( ` { ) _ _ _ >.",
">._ | } ` ) _ _ >.>.>.>.S z M 6 * e m z >.>.>.>._ _ ) _ ) _ _ >.",
">._ } ` _ _ _ >.>.>.>.>.I Z B 3   e 6 w >.>.>.>.>._ _ _ _ _ _ >.",
">._ ) _ _ _ _ ) >.>.>.>.>.Z Z e X * X >.>.>.>.>.} ) ) _ _ _ ) >.",
">._ _ _ _ ) _ ) ] o.$.>.S B M e       y >.$.$.o.{ ) _ _ _ _ _ >.",
">.>._ _ _ _ _ _ ( { +.*.I I Z f , .   M l Q +.{ ( ) ) _ _ _ >.>.",
">.>._ ) _ _ _ ) _ / E P I Z C &.[ +   6 X s ( ) ) _ _ _ _ _ >.>.",
">.>.>.>._ ! ! ~ ` g z P B z D :.%.#       5 k _ ~ d ~ _ >.>.>.>.",
">.>.>.>.>.    p ~ s < m z e = ..W +       3 j ^ p     >.>.>.>.>.",
">.>.>.>.o X     6 B U A m P V u u .         6 -     & x >.>.>.>.",
">.>.>.( R B * - N I T h z w             > :         & r i >.>.>.",
">.>.>.G F I M t , O o .                       : :     .   >.>.>.",
">.>.>.X B I N V G S B 7                       .           >.>.>.",
">.>.>.>.>.* X y Y S w                           * 3   >.>.>.>.>.",
">.>.>.>.>.w & X & $ X                           . X   >.>.>.>.>.",
">.>.>.>.>.$ X * *                                     >.>.>.>.>.",
">.>.Y >.>.m * X X                             * *     >.>.>.>.>.",
">.I Z >.>.Z 8 ; 6                             6 6     >.>.Y >.>.",
">.Z 6 >.  w ; y y                             $ $       >.Z >.>.",
">.3   7 X w 6 8 q                             X $     X e 7 Z >.",
">.    3 X y 6 7 8                             6 6     X * . 3 >.",
">.        w ; 8 w                             * *             >.",
">.        y 6 6 7                             X X             >.",
"0 .       7 ; y w     % % O         O % % X   6 6               ",
"        X w m c 7   4 H n b O O O O b n H 4   6 6     X         ",
">.>.>.  7 S B e x v J ;.;.=.n n n n =.;.;.L 2 1 6   * 7   >.>.>.",
">.>.>.>.>.>.z z e K ;.;.;.;.-.;.=.-.;.;.;.;.9 1 3   >.>.>.>.>.>."
};
