/* XPM */
static char *result[] = {
/* columns rows colors chars-per-pixel */
"32 32 130 2 ",
"   c #010001",
".  c #090102",
"X  c #04050A",
"o  c #0B060B",
"O  c #00080F",
"+  c #150504",
"@  c #1E0101",
"#  c #180803",
"$  c #070710",
"%  c #000A12",
"&  c #0A0A15",
"*  c #010E1B",
"=  c #0D0C1C",
"-  c #1E0F12",
";  c #110D1F",
":  c #00111E",
">  c #0F111E",
",  c #11121F",
"<  c #2F0202",
"1  c #3F0202",
"2  c #34060D",
"3  c #0E0F21",
"4  c #110E20",
"5  c #001424",
"6  c #0D1122",
"7  c #0D152D",
"8  c #121226",
"9  c #15152C",
"0  c #15182A",
"q  c #1A1A2F",
"w  c #171731",
"e  c #191A34",
"r  c #1A1B3C",
"t  c #2C162E",
"y  c #3D1021",
"u  c #00233F",
"i  c #1D213B",
"p  c #530405",
"a  c #580201",
"s  c #490711",
"d  c #520C1E",
"f  c #580E1E",
"g  c #7E0C1D",
"h  c #451533",
"j  c #6A122A",
"k  c #75132A",
"l  c #601631",
"z  c #6E1733",
"x  c #753128",
"c  c #1D1E42",
"v  c #211E41",
"b  c #002542",
"n  c #002A4C",
"m  c #1D2044",
"M  c #002E54",
"N  c #003057",
"B  c #003159",
"V  c #212445",
"C  c #22264B",
"Z  c #28274B",
"A  c #25294E",
"S  c #2B284C",
"D  c #332B4D",
"F  c #2A2D54",
"G  c #362E54",
"H  c #2D325C",
"J  c #3E3B57",
"K  c #31345D",
"L  c #39345B",
"P  c #003461",
"I  c #003867",
"U  c #0F3E63",
"Y  c #003A6A",
"T  c #2E3A68",
"R  c #333965",
"E  c #383862",
"W  c #353C69",
"Q  c #53284A",
"!  c #4F2E52",
"~  c #622042",
"^  c #12416A",
"/  c #004074",
"(  c #3D5363",
")  c #BC3A17",
"_  c #B83319",
"`  c #8B0E20",
"'  c #940F23",
"]  c #941026",
"[  c #97102A",
"{  c #9D1229",
"}  c #A20F26",
"|  c #A31026",
" . c #A91525",
".. c #AC1A24",
"X. c #B11E23",
"o. c #AF2126",
"O. c #B32223",
"+. c #B82722",
"@. c #BC2B21",
"#. c #BF3B24",
"$. c #C6361F",
"%. c #C9361F",
"&. c #CB3C1E",
"*. c #C02F20",
"=. c #C33320",
"-. c #D4451C",
";. c #D7491C",
":. c #DA491B",
">. c #D14D24",
",. c #B73F4C",
"<. c #824041",
"1. c #0C4E85",
"2. c #005DAA",
"3. c #0262B2",
"4. c #0267BA",
"5. c #0369BE",
"6. c #2378BE",
"7. c #4F658C",
"8. c #50668D",
"9. c #0A6FC2",
"0. c #269DFF",
"q. c #29A3FF",
"w. c #37A7FF",
"e. c #3EA8FC",
"r. c #43ABFF",
"t. c #E8A28D",
"y. c #9CD2FF",
"u. c #9FD8FF",
"i. c #A1D9FF",
"p. c None",
/* pixels */
"p.p.p.p.p.p.p.p.p.p.=.} | p.p.p.p.p.p.-.:.;.p.p.p.p.p.p.p.p.p.p.",
"p.p.p.p.| p.p.p.p.=. .| | p.p.c c p.p. .=.:.;.p.p.p.p.} p.p.p.p.",
"p.p.p.p.| | } *.=. .} | p.p.K c c c p.p. .=.;.:.@.} } } p.p.p.p.",
"p.p.p.p.| | |  . .} | p.p.p.p.H m p.p.p.p.....=.;.@.} } p.p.p.p.",
"p.} p.;...} | } } | p.p.p.p.p.C c p.p.p.p.p.}  .O.@.@.} | p.| p.",
"p.} { -.O.| | | | p.p.p.p.p.R H m c p.p.p.p.p.} {  .O.} | | | p.",
"p.| @.+. .} | | p.p.p.p.H c C 8 = r V c p.p.p.p.| | } | } | | p.",
"p.| +. .| | | p.p.p.p.p.R F A 3   r 8 e p.p.p.p.p.| | | | | | p.",
"p.| } | | } | } p.p.p.p.p.F F r X = X p.p.p.p.p.+.} } | | | } p.",
"p.| | | | | | } X.&.:.p.H A C c       i p.:.:.&.O.} | | | | | p.",
"p.p.| | | | | } {  .=.<.R R F h 2 .   C x _ %.X.{ } } | | | p.p.",
"p.p.| } | | | | } [ ~ ( E F D ,.o.+   8 X d { } } | | | | | p.p.",
"p.p.p.p.| ` ` `  .j c T F c J t.>.#       7 z | ' g ' | p.p.p.p.",
"p.p.p.p.p.    s ' f 3 c c c - ) ) +       6 l ] s     p.p.p.p.p.",
"p.p.p.p.o X     4 S E G m T S p p .     .   8 =     & v p.p.p.p.",
"p.p.p.{ ! A = ; S T Q k c w X X         1 @   .     & t a p.p.p.",
"p.p.p.L R R C y 2 X o . X % n n M n %   .     < <       . p.p.p.",
"p.p.p.o Z R C S K H S 8 % n M M M M n %       . .         p.p.p.",
"p.p.p.p.p.= X i W H w * n M M M M M M n %       = 6   p.p.p.p.p.",
"p.p.p.p.p.e & X & $ * n M M M M M M M M n %       X   p.p.p.p.p.",
"p.p.p.p.p.&   = =   : N M M M M M M M M M :           p.p.p.p.p.",
"p.p.W p.p.V > X o   : N M M M M M M M M M *   = &     p.p.p.p.p.",
"p.R F p.p.F 0 > , % u N M M M N M M M M M b % 8 8     p.p.E p.p.",
"p.F 8 p.  e > i i : B n M M M M M M M M M B 5 X $       p.F p.p.",
"p.6   9 X r > 0 9 5 N M M M B Y Y B M M M B 5 o $     X e 8 F p.",
"p.    > X i 8 0 9 * N M B I Y 5.9.Y I B M B * 4 8     X 3 X 8 p.",
"p.        e = q e * M M I 4.9.r.w.9.4.I M M 5 & &             p.",
"p.        m 8 8 8 5 I P 1.e.r.y.y.r.w.1.P I 5 X X             p.",
"w         9 6 i w b 3.2.6.y.y.y.y.y.i.6.2.3.b 4 8               ",
"        X q m c 4 U q.0.r.y.y.y.y.y.y.r.0.0.U = 8     X         ",
"p.p.p.  9 H A c r 7.y.y.y.y.y.y.y.y.y.y.y.u.( = 6   & w   p.p.p.",
"p.p.p.p.p.p.c c r 8.y.y.y.y.y.y.y.y.y.y.y.u.( = 8   p.p.p.p.p.p."
};
