/* XPM */
static char *result[] = {
/* columns rows colors chars-per-pixel */
"32 32 136 2 ",
"   c #010001",
".  c #090102",
"X  c #04050A",
"o  c #0B060B",
"O  c #150504",
"+  c #1E0101",
"@  c #180803",
"#  c #070710",
"$  c #000C16",
"%  c #0A0A15",
"&  c #010E1A",
"*  c #0C0C1C",
"=  c #1E0F12",
"-  c #110D1F",
";  c #03101F",
":  c #0F111E",
">  c #11121F",
",  c #2F0202",
"<  c #3F0202",
"1  c #34060D",
"2  c #0E0F21",
"3  c #110E20",
"4  c #011425",
"5  c #0D1122",
"6  c #00172A",
"7  c #00182D",
"8  c #0D152D",
"9  c #121225",
"0  c #15152C",
"q  c #15182A",
"w  c #1A1A2F",
"e  c #171731",
"r  c #191A35",
"t  c #16173B",
"y  c #1A1C3D",
"u  c #2C162E",
"i  c #3D1021",
"p  c #00223F",
"a  c #1D213B",
"s  c #530405",
"d  c #580201",
"f  c #490711",
"g  c #580E1E",
"h  c #520C1E",
"j  c #7E0C1D",
"k  c #451533",
"l  c #6A122A",
"z  c #75132A",
"x  c #601631",
"c  c #6E1733",
"v  c #753128",
"b  c #1D1E42",
"n  c #211E41",
"m  c #002340",
"M  c #1D2044",
"N  c #002D53",
"B  c #00345F",
"V  c #212445",
"C  c #22264B",
"Z  c #28274B",
"A  c #25294E",
"S  c #2B284C",
"D  c #332B4D",
"F  c #2A2D54",
"G  c #362E54",
"H  c #2D325C",
"J  c #3E3B57",
"K  c #31345D",
"L  c #39345B",
"P  c #003663",
"I  c #003866",
"U  c #003C6E",
"Y  c #0E3F6A",
"T  c #0B3C63",
"R  c #003E73",
"E  c #2E3A68",
"W  c #333965",
"Q  c #383862",
"!  c #353C69",
"~  c #53284A",
"^  c #4F2E52",
"/  c #622042",
"(  c #004177",
")  c #00447C",
"_  c #3E5363",
"`  c #636463",
"'  c #BC3A17",
"]  c #B83319",
"[  c #8B0E20",
"{  c #940F23",
"}  c #941026",
"|  c #97102A",
" . c #9D1229",
".. c #A20F26",
"X. c #A31026",
"o. c #A91525",
"O. c #AC1A24",
"+. c #B11E23",
"@. c #AF2126",
"#. c #B32223",
"$. c #B82722",
"%. c #BC2B21",
"&. c #BF3B24",
"*. c #C6361F",
"=. c #C9361F",
"-. c #CB3C1E",
";. c #C02F20",
":. c #C33320",
">. c #D4451C",
",. c #D7491C",
"<. c #DA491B",
"1. c #D14D24",
"2. c #B73F4C",
"3. c #824041",
"4. c #014985",
"5. c #014E8E",
"6. c #0262B2",
"7. c #036ABF",
"8. c #50668C",
"9. c #75778D",
"0. c #036BC0",
"q. c #0C71C3",
"w. c #1178CD",
"e. c #2DA3FF",
"r. c #3EAAFF",
"t. c #4BAFFF",
"y. c #55B7FF",
"u. c #E8A28D",
"i. c #AFDAFF",
"p. c #B9DFFF",
"a. c #BDE1FF",
"s. c #C0E2FF",
"d. c #C7EAFF",
"f. c #C8EBFF",
"g. c #FFFFFF",
"h. c None",
/* pixels */
"h.h.h.h.h.h.h.h.h.h.:...X.h.h.h.h.h.h.>.<.<.h.h.h.h.h.h.h.h.h.h.",
"h.h.h.h.X.h.h.h.h.:.o.X.X.h.h.b b h.h.o.:.<.,.h.h.h.h...h.h.h.h.",
"h.h.h.h.X.X...;.:.o...X.h.h.K b b b h.h.o.:.,.<.%.......h.h.h.h.",
"h.h.h.h.X.X.X.o.o...X.h.h.h.h.H M h.h.h.h.O.O.:.,.%.....h.h.h.h.",
"h...h.,.O...X.....X.h.h.h.h.h.V b h.h.h.h.h...o.@.%.%...X.h.X.h.",
"h... .>.#.X.X.X.X.h.h.h.h.h.W H M b h.h.h.h.h...X.o.#...X...X.h.",
"h.X.%.$.o...X.X.h.h.h.h.H b C q * y V b h.h.h.h.X.X...X.X.X.X.h.",
"h.X.$.o.X.X.X.h.h.h.h.h.W F A *   y 9 r h.h.h.h.h.X.X.X.X.X.X.h.",
"h.X...X.X.X.X...h.h.h.h.h.F A b X * X h.h.h.h.h.$...X.X.X.X...h.",
"h.X.X.X.X.X.X...+.-.<.h.H A A y       a h.<.<.-.#...X.X.X.X.X.h.",
"h.h.X.X.X.X.X.X...#.:.3.W W F k 1 .   C v ] :.#. .X.X.X.X.X.h.h.",
"h.h.X...X...X.X.X.| / E W H D 2.@.O   9 X g  .......X...X.X.h.h.",
"h.h.h.h.X.[ [ [ o.l M H F M J u.1.@       8 c X.[ [ [ X.h.h.h.h.",
"h.h.h.h.h.    f | g 5 M M M = ' ' O       5 x } f   X h.h.h.h.h.",
"h.h.h.h.o X     9 F Q G M W S s s .     .   9 *     % n h.h.h.h.",
"h.h.h. .^ A * - Z H ~ z y r X X   X     < +   .     % u d h.h.h.",
"h.h.h.L K W C i 1 X X .   & P P I I $   .     , ,       . h.h.h.",
"h.h.h.X A ! C S K H F 9 $ P U U U U P $       . .         h.h.h.",
"h.h.h.h.h.* X a ! H e * P R U U U U U P &       * 5   h.h.h.h.h.",
"h.h.h.h.h.r % X % o 4 B U U U U U U U U P &       X   h.h.h.h.h.",
"h.h.h.h.h.%   * *   4 ( U U U U U U U U R 4           h.h.h.h.h.",
"h.h.! h.h.V : X X   4 U U U U U U U U U R 4   * %     h.h.h.h.h.",
"h.! F h.h.F q : > $ N U U U U U U U U U U N $ 9 9     h.h.! h.h.",
"h.F 9 h.  r : a a 6 ( U U U U U U U U U U R 7 X #       h.F h.h.",
"h.5   e X r 5 q 0 4 R U U U ) ) ) ) U U U R 7 o #     X y 0 F h.",
"h.    * X a 9 0 q 6 R U U 4.7.7.0.7.4.R U R 6 3 9     X *   9 h.",
"h.        r : w w 6 R ( 4.q.t.r.r.r.q.4.R R 6 % %             h.",
"h.        V 9 9 9 7 5.6.q.t.p.p.p.p.t.q.6.5.6 X X             h.",
"e         0 2 a w p w.e.t.s.g.g.g.g.s.t.e.w.m 3 9               ",
"        X w M b - Y y.i.p.g.g.g.g.g.g.p.i.y.T * 9     X         ",
"h.h.h.  0 H A b t 8.d.g.g.g.g.g.g.g.g.g.g.d._ * 5   % e   h.h.h.",
"h.h.h.h.h.h.b b t 9.g.g.g.g.g.g.g.g.g.g.g.g.` * 9   h.h.h.h.h.h."
};
