/* XPM */
static char *result[] = {
/* columns rows colors chars-per-pixel */
"32 32 112 2 ",
"   c #000000",
".  c #090102",
"X  c #04050A",
"o  c #0B060B",
"O  c #150504",
"+  c #1E0101",
"@  c #180803",
"#  c #070710",
"$  c #000C16",
"%  c #0A0B16",
"&  c #000E19",
"*  c #0D0D1B",
"=  c #1E0F12",
"-  c #100C1E",
";  c #0F111E",
":  c #2F0202",
">  c #3F0202",
",  c #34060D",
"<  c #0E0F21",
"1  c #0D1122",
"2  c #001729",
"3  c #0D152D",
"4  c #00182B",
"5  c #121225",
"6  c #14152C",
"7  c #16192D",
"8  c #1A192E",
"9  c #161631",
"0  c #171832",
"q  c #191A35",
"w  c #1B1C3C",
"e  c #2C162E",
"r  c #3D1021",
"t  c #1D213B",
"y  c #530505",
"u  c #580201",
"i  c #490711",
"p  c #520C1E",
"a  c #580E1E",
"s  c #7E0C1D",
"d  c #451533",
"f  c #6A122A",
"g  c #75132A",
"h  c #601631",
"j  c #6E1733",
"k  c #753128",
"l  c #1D1E42",
"z  c #211E41",
"x  c #012847",
"c  c #022949",
"v  c #1D2044",
"b  c #002E54",
"n  c #212445",
"m  c #22264B",
"M  c #28274B",
"N  c #25294E",
"B  c #2B284C",
"V  c #332B4D",
"C  c #2A2D54",
"Z  c #362E54",
"A  c #2D325C",
"S  c #3E3B57",
"D  c #31345D",
"F  c #39345B",
"G  c #003663",
"H  c #063B64",
"J  c #093D6A",
"K  c #2E3A68",
"L  c #333965",
"P  c #383862",
"I  c #353C69",
"U  c #53284A",
"Y  c #4F2E52",
"T  c #622042",
"R  c #BC3A17",
"E  c #B83319",
"W  c #8B0E20",
"Q  c #940F23",
"!  c #941026",
"~  c #97102A",
"^  c #9D1229",
"/  c #A20F26",
"(  c #A31026",
")  c #A91525",
"_  c #AC1A24",
"`  c #B11E23",
"'  c #AF2126",
"]  c #B32223",
"[  c #B82722",
"{  c #BC2B21",
"}  c #BF3B24",
"|  c #C6361F",
" . c #C9361F",
".. c #CB3C1E",
"X. c #C02F20",
"o. c #C33320",
"O. c #D4451C",
"+. c #D7491C",
"@. c #DA491B",
"#. c #D14D24",
"$. c #B73F4C",
"%. c #824041",
"&. c #194D8D",
"*. c #03579C",
"=. c #03599F",
"-. c #035CA5",
";. c #035FAB",
":. c #0F88EC",
">. c #1294FE",
",. c #1399FF",
"<. c #E8A28D",
"1. c None",
/* pixels */
"1.1.1.1.1.1.1.1.1.1.o./ ( 1.1.1.1.1.1.O.O.+.1.1.1.1.1.1.1.1.1.1.",
"1.1.1.1.( 1.1.1.1.o.) ( ( 1.1.l l 1.1.) ..+.+.1.1.1.1.( 1.1.1.1.",
"1.1.1.1.( ( / X.o.) / ( 1.1.D l l l 1.1.)  .+.@.{ / ( ( 1.1.1.1.",
"1.1.1.1.( ( ( ) ) / ( 1.1.1.1.A v 1.1.1.1._ _ o.O.{ / / 1.1.1.1.",
"1./ 1.+._ / ( / / ( 1.1.1.1.1.m l 1.1.1.1.1./ ) ] { { / ( 1.( 1.",
"1./ ^ O.] ( ( ( ( 1.1.1.1.1.L A v l 1.1.1.1.1./ ( ) _ / ( ( ( 1.",
"1.( { [ ) / ( ( 1.1.1.1.A l m 6 * w l l 1.1.1.1.( ( / ( ( ( ( 1.",
"1.( [ ) ( ( ( 1.1.1.1.1.L C N * X w 5 0 1.1.1.1.1.( ( ( ( ( ( 1.",
"1.( / ( ( ( ( / 1.1.1.1.1.C N l X * X 1.1.1.1.1.[ / ( ( / ( ( 1.",
"1.( ( ( / ( ( / ` ..@.1.A m N w X     t 1.@.@...] / ( ( ( ( ( 1.",
"1.1.( ( ( ( / ^ ^ ] o.%.L L Z d , .   m k E o.] ^ / ( ( ( ( 1.1.",
"1.1.( / ( ( / ( ( ~ T I K A V $._ O   5 X a ^ / / / ( ( ( ( 1.1.",
"1.1.1.1.( W W Q ( f v A C v S <.#.O       3 j ( Q s W ( 1.1.1.1.",
"1.1.1.1.1.    i ! a 1 n v w = R R O       1 h ! i .   1.1.1.1.1.",
"1.1.1.1.o X     5 C P Z n K B y y .     .   5 *     % z 1.1.1.1.",
"1.1.1.^ Y N * - B A U g w q   .         > + X   .   % e u 1.1.1.",
"1.1.1.F D L n d , X o .   X             .     : :     X . 1.1.1.",
"1.1.1.X N L m B D A N 5                       . .         1.1.1.",
"1.1.1.1.1.; X t I A 9 X                         * *   1.1.1.1.1.",
"1.1.1.1.1.q # X % # X                           X X   1.1.1.1.1.",
"1.1.1.1.1.# X % *                                     1.1.1.1.1.",
"1.1.I 1.1.n ; X o                             * *     1.1.1.1.1.",
"1.L C 1.1.C 7 ; 5                             5 5     1.1.I 1.1.",
"1.C 5 1.  q ; t t                             # #       1.C 1.1.",
"1.1 X 6 X q ; 7 8                             # o     X w 5 C 1.",
"1.    1 X w ; 7 7 X $                     $ X 5 5     o * X 5 1.",
"1.        q ; 8 8 2 b & $             $ & b 4 % *             1.",
"1.        n 5 5 5 c =.G b $ $ $ $ $ $ b G =.c . X             1.",
"7 X       6 ; t 8 H :.;.*.G G G G G G *.;.:.H - 5               ",
"        X 0 v l - J ,.>.:.-.-.-.-.-.-.:.,.,.H - 5     X         ",
"1.1.1.  7 A N l q &.>.>.>.>.>.>.>.>.>.>.>.,.H * 1   % 9   1.1.1.",
"1.1.1.1.1.1.l l w &.,.>.>.>.>.>.>.>.>.>.>.,.H - 5   1.1.1.1.1.1."
};
