/* XPM */
static char *result[] = {
/* columns rows colors chars-per-pixel */
"32 32 126 2 ",
"   c #010001",
".  c #090102",
"X  c #04050A",
"o  c #0B060B",
"O  c #00080F",
"+  c #150504",
"@  c #1E0101",
"#  c #180803",
"$  c #070710",
"%  c #000A12",
"&  c #0A0A15",
"*  c #010E1B",
"=  c #0C0C1C",
"-  c #1E0F12",
";  c #110D1E",
":  c #01101E",
">  c #0F111E",
",  c #11121F",
"<  c #2F0202",
"1  c #3F0202",
"2  c #34060D",
"3  c #0E0F21",
"4  c #001221",
"5  c #0D1122",
"6  c #001629",
"7  c #0D152D",
"8  c #121225",
"9  c #15152C",
"0  c #15182A",
"q  c #19182C",
"w  c #171731",
"e  c #191A35",
"r  c #15173B",
"t  c #1A1C3D",
"y  c #2C162E",
"u  c #3D1021",
"i  c #00233F",
"p  c #1D213B",
"a  c #530405",
"s  c #580201",
"d  c #490711",
"f  c #520C1E",
"g  c #580E1E",
"h  c #7E0C1D",
"j  c #451533",
"k  c #6A122A",
"l  c #75132A",
"z  c #601631",
"x  c #6E1733",
"c  c #753128",
"v  c #1D1E42",
"b  c #211E41",
"n  c #002A4B",
"m  c #1D2044",
"M  c #002E54",
"N  c #003057",
"B  c #003159",
"V  c #212445",
"C  c #22264B",
"Z  c #28274B",
"A  c #25294E",
"S  c #2B284C",
"D  c #332B4D",
"F  c #2A2D54",
"G  c #362E54",
"H  c #2D325C",
"J  c #3E3B57",
"K  c #31345D",
"L  c #39345B",
"P  c #003663",
"I  c #003866",
"U  c #2E3A68",
"Y  c #333965",
"T  c #383862",
"R  c #353C69",
"E  c #53284A",
"W  c #4F2E52",
"Q  c #622042",
"!  c #174466",
"~  c #4A5963",
"^  c #666563",
"/  c #6A696A",
"(  c #BC3A17",
")  c #B83319",
"_  c #8B0E20",
"`  c #940F23",
"'  c #941026",
"]  c #97102A",
"[  c #9D1229",
"{  c #A20F26",
"}  c #A31026",
"|  c #A91525",
" . c #AC1A24",
".. c #B11E23",
"X. c #AF2126",
"o. c #B32223",
"O. c #B82722",
"+. c #BC2B21",
"@. c #BF3B24",
"#. c #C6361F",
"$. c #C9361F",
"%. c #CB3C1E",
"&. c #C02F20",
"*. c #C33320",
"=. c #D4451C",
"-. c #D7491C",
";. c #DA491B",
":. c #D14D24",
">. c #B73F4C",
",. c #824041",
"<. c #025BA3",
"1. c #025FAC",
"2. c #0162B2",
"3. c #77788D",
"4. c #2695EE",
"5. c #279EFF",
"6. c #2CA1FF",
"7. c #E8A28D",
"8. c #90CDFF",
"9. c #8DD0FF",
"0. c #A5D6FF",
"q. c #ACD9FF",
"w. c #EBF6FF",
"e. c #ECFBFF",
"r. c #FDFEFF",
"t. c None",
/* pixels */
"t.t.t.t.t.t.t.t.t.t.*.{ } t.t.t.t.t.t.=.;.;.t.t.t.t.t.t.t.t.t.t.",
"t.t.t.t.} t.t.t.t.*.| } } t.t.v v t.t.| *.;.-.t.t.t.t.} t.t.t.t.",
"t.t.t.t.} } { &.*.| { } t.t.K v v v t.t.| *.-.;.+.} } { t.t.t.t.",
"t.t.t.t.} } } | | { } t.t.t.t.H m t.t.t.t. . .*.-.+.[ { t.t.t.t.",
"t.{ t.-. .{ } { { } t.t.t.t.t.C v t.t.t.t.t.{ | o.+.+.{ } t.} t.",
"t.{ [ =.o.} } } } t.t.t.t.t.Y F m v t.t.t.t.t.{ } |  .{ } } } t.",
"t.} +.O.| { } } t.t.t.t.H v C 0 = t V v t.t.t.t.} } { } } } } t.",
"t.} O.| } } } t.t.t.t.t.Y F A 3   t 8 e t.t.t.t.t.} } } } } } t.",
"t.} { } } } } { t.t.t.t.t.F F p X = X t.t.t.t.t.O.{ } } { } } t.",
"t.} } } } } } { ..%.;.t.H A C t       p t.;.;.%.o.{ } } } } } t.",
"t.t.} } } } } } } o.*.,.Y Y F j 2     C c ) $...[ { } } } } t.t.",
"t.t.} { { } } } } ] Q U K H D >.X.+   8 X f [ { { { } } } } t.t.",
"t.t.t.t.} _ _ _ } k m H F m J 7.:.#       7 x } _ _ _ } t.t.t.t.",
"t.t.t.t.t.    d ] g 5 V v p - ( ( #       5 z ' d   X t.t.t.t.t.",
"t.t.t.t.o X     8 F T G m K F a a .         8 ;     & b t.t.t.t.",
"t.t.t.[ W A = ; S H E l v r X X         1 <         & y s t.t.t.",
"t.t.t.L Y Y A u 2 X o .   % n n M n %         < <       . t.t.t.",
"t.t.t.X A Y C S H H F 8 % n M M M M n %       .           t.t.t.",
"t.t.t.t.t.& X p Y H w = n N M M M M M n %       = ;   t.t.t.t.t.",
"t.t.t.t.t.e & X & $ : n M M M M M M M M n %     X X   t.t.t.t.t.",
"t.t.t.t.t.&   & >   : N M M M M M M M M N :           t.t.t.t.t.",
"t.t.Y t.t.V > X X   : N M M M M M M M M M *   = &     t.t.t.t.t.",
"t.Y H t.t.F 0 > , O i N M M M M M M M M N n O 8 8     t.t.R t.t.",
"t.F 8 t.  e > p p : N M M M M M M M M M M N : X $       t.F t.t.",
"t.5   w X e 5 0 q : M M M M M M M M M M M M 4 X $     X e 8 F t.",
"t.    = X p 8 0 8 6 I M M M M M M M M M M I 6 8 8     X 3 X 8 t.",
"t.        e = e q n <.I P n M M M n M P I <.n & &             t.",
"t.        V 8 8 8 ! 4.2.<.P P P P P P <.2.4.!   X             t.",
"w         0 5 p 9 ~ 8.5.4.1.1.1.1.1.1.4.6.9.~ = 8               ",
"        X w V v = / w.q.8.5.5.5.5.5.5.8.q.w.^ = 8     X         ",
"t.t.t.  9 H A t r 3.r.r.w.0.0.0.0.0.0.w.r.r.^ = 5   & w   t.t.t.",
"t.t.t.t.t.t.v v r 3.r.r.r.r.r.r.r.r.r.r.r.r.^ = 8   t.t.t.t.t.t."
};
