/* XPM */
static char *result[] = {
/* columns rows colors chars-per-pixel */
"32 32 132 2 ",
"   c #010001",
".  c #090102",
"X  c #03050B",
"o  c #0B060B",
"O  c #00080F",
"+  c #150504",
"@  c #1E0101",
"#  c #180803",
"$  c #070710",
"%  c #010B15",
"&  c #0A0B16",
"*  c #010D19",
"=  c #0C0C1C",
"-  c #1E0F12",
";  c #110D1F",
":  c #00111E",
">  c #0F111E",
",  c #2F0202",
"<  c #3F0202",
"1  c #34060D",
"2  c #0E0F21",
"3  c #110E20",
"4  c #0D1122",
"5  c #0D152D",
"6  c #121225",
"7  c #14152C",
"8  c #16182C",
"9  c #1A1A2F",
"0  c #001B32",
"q  c #001F39",
"w  c #171731",
"e  c #191A34",
"r  c #16173B",
"t  c #1A1C3D",
"y  c #2C162E",
"u  c #3D1021",
"i  c #00213C",
"p  c #1D213B",
"a  c #530505",
"s  c #580201",
"d  c #490711",
"f  c #520C1E",
"g  c #580E1E",
"h  c #7E0C1D",
"j  c #451533",
"k  c #6A122A",
"l  c #75132A",
"z  c #601631",
"x  c #6E1733",
"c  c #753128",
"v  c #1D1E42",
"b  c #211E41",
"n  c #002442",
"m  c #00294B",
"M  c #1D2044",
"N  c #002F57",
"B  c #00315A",
"V  c #212445",
"C  c #22264B",
"Z  c #28274B",
"A  c #25294E",
"S  c #2B284C",
"D  c #332B4D",
"F  c #2A2D54",
"G  c #362E54",
"H  c #2D325C",
"J  c #3E3B57",
"K  c #31345D",
"L  c #39345B",
"P  c #0E3F6A",
"I  c #0B3C63",
"U  c #2E3A68",
"Y  c #333965",
"T  c #383862",
"R  c #353C69",
"E  c #53284A",
"W  c #4F2E52",
"Q  c #622042",
"!  c #014278",
"~  c #3E5363",
"^  c #636463",
"/  c #BC3A17",
"(  c #B83319",
")  c #8B0E20",
"_  c #940F23",
"`  c #941026",
"'  c #97102A",
"]  c #9D1229",
"[  c #A20F26",
"{  c #A31026",
"}  c #A91525",
"|  c #AC1A24",
" . c #B11E23",
".. c #AF2126",
"X. c #B32223",
"o. c #B82722",
"O. c #BC2B21",
"+. c #BF3B24",
"@. c #C6361F",
"#. c #C9361F",
"$. c #CB3C1E",
"%. c #C02F20",
"&. c #C33320",
"*. c #D4451C",
"=. c #D7491C",
"-. c #DA491B",
";. c #D14D24",
":. c #B73F4C",
">. c #824041",
",. c #025BA4",
"<. c #025FAC",
"1. c #0360AE",
"2. c #0365B5",
"3. c #50668C",
"4. c #75778D",
"5. c #1179CE",
"6. c #2797F2",
"7. c #279EFF",
"8. c #299FFF",
"9. c #2FA3FF",
"0. c #30A4FF",
"q. c #55B7FF",
"w. c #E8A28D",
"e. c #97D0FF",
"r. c #A6D7FF",
"t. c #AEDAFF",
"y. c #B0DBFF",
"u. c #C7EAFF",
"i. c #C8EBFF",
"p. c #EFF8FF",
"a. c #FEFFFF",
"s. c None",
/* pixels */
"s.s.s.s.s.s.s.s.s.s.&.[ { s.s.s.s.s.s.*.*.*.s.s.s.s.s.s.s.s.s.s.",
"s.s.s.s.{ s.s.s.s.&.} { { s.s.v v s.s.} $.=.=.s.s.s.s.{ s.s.s.s.",
"s.s.s.s.{ { [ %.&.} [ { s.s.K v v v s.s.} #.=.-.O.[ { [ s.s.s.s.",
"s.s.s.s.{ { { } } [ { s.s.s.s.H M s.s.s.s.| | @.*.O.[ { s.s.s.s.",
"s.[ s.=.| [ { [ [ { s.s.s.s.s.M v s.s.s.s.s.[ } X.O.O.[ { s.{ s.",
"s.[ ] *.X.{ { { { s.s.s.s.s.Y H M v s.s.s.s.s.[ [ | | [ { { { s.",
"s.{ O.o.} [ { { s.s.s.s.H M C 7 = t V v s.s.s.s.{ [ [ { { { { s.",
"s.{ o.} { { { s.s.s.s.s.Y F A =   t 6 r s.s.s.s.s.{ { { { { { s.",
"s.{ [ { { { { [ s.s.s.s.s.F F v X = X s.s.s.s.s.o.[ [ { { [ { s.",
"s.{ { { [ { { [  .$.-.s.H A C p       p s.-.-.$.X.[ { { { { { s.",
"s.s.{ { { { { { ] X.&.>.Y Y F j 1     C c ( #. .] [ [ { { { s.s.",
"s.s.{ [ { { { [ { ' Q R K H D :...+   6 X f ] [ [ { { { { { s.s.",
"s.s.s.s.{ ) ) ) { k M H F M J w.;.#       5 x { _ h _ { s.s.s.s.",
"s.s.s.s.s.    d ` g 4 V M t - @./ #       4 z ` d     s.s.s.s.s.",
"s.s.s.s.o X     6 F T G V H F a a .         6 ;     & b s.s.s.s.",
"s.s.s.] W A = ; S H E l v e X           < ,         & y s s.s.s.",
"s.s.s.L T Y C u 1 X o .   O i i i i O         , ,       . s.s.s.",
"s.s.s.X A Y A S G H F 6 O i n n n n i O       .           s.s.s.",
"s.s.s.s.s.& X p R H 9 % i n n n n n n i O       = ;   s.s.s.s.s.",
"s.s.s.s.s.e & o & $ * q n n n n n n n n q %     X X   s.s.s.s.s.",
"s.s.s.s.s.&   & =   % n n n n n n n n n n %           s.s.s.s.s.",
"s.s.R s.s.V > X X   * n n n n n n n n n n %   = &     s.s.s.s.s.",
"s.Y F s.s.F 8 > > O 0 n n n n n n n n n n 0 O 6 6     s.s.R s.s.",
"s.F 6 s.  e > p p : n n n n n n n n n n n m * X $       s.F s.s.",
"s.4   w X e 6 7 9 % n n n n n n n n n n n n * $ $     X e 7 F s.",
"s.    = X p > 8 7 * n n n i n n n n n n n n * 3 6     X 2   6 s.",
"s.        e > 9 9 % m B B N n n i n B B B m * & &             s.",
"s.        M 6 6 7 : ! 2.2.,.N N N B ,.2.2.! * X X             s.",
"w         7 4 p 9 i 5.0.9.6.<.<.<.<.6.0.9.5.n 3 6               ",
"        X 9 M v ; P q.y.t.e.7.7.7.7.e.y.t.q.I = 6     X         ",
"s.s.s.  7 H A v r 3.u.a.a.p.r.r.r.r.p.a.a.u.~ = 4   & w   s.s.s.",
"s.s.s.s.s.s.v v r 4.a.a.a.a.a.a.a.a.a.a.a.a.^ = 6   s.s.s.s.s.s."
};
