/* XPM */
static char *_8e358e3df604329c5e53ce9264fb1cbI2xOhTPnB26MmAYY[] = {
/* columns rows colors chars-per-pixel */
"32 32 234 2 ",
"   c None",
".  c black",
"X  c #080601",
"o  c #0A0702",
"O  c #0A0900",
"+  c #0C0902",
"@  c #0D0902",
"#  c #0D0A03",
"$  c #0E0A03",
"%  c #0D0C02",
"&  c #0F0C03",
"*  c #0F0D03",
"=  c #0E0D04",
"-  c #0F0E04",
";  c #08080A",
":  c gray4",
">  c #0B0B0A",
",  c gray5",
"<  c #0E0E0E",
"1  c #100C03",
"2  c #131205",
"3  c #171605",
"4  c #131312",
"5  c #171718",
"6  c #171719",
"7  c #2E2207",
"8  c #302408",
"9  c #32270A",
"0  c #382C0C",
"q  c #392D0C",
"w  c #32300A",
"e  c #3F300A",
"r  c #3F310D",
"t  c #38350E",
"y  c #3F3C10",
"u  c #323230",
"i  c #383839",
"p  c #39393A",
"a  c #42310A",
"s  c #48360B",
"d  c #423E0E",
"f  c #433F0E",
"g  c #533E0D",
"h  c #513E0E",
"j  c #403313",
"k  c #443714",
"l  c #5B440F",
"z  c #504C15",
"x  c #5E4913",
"c  c #5E4A14",
"v  c #565216",
"b  c #575317",
"n  c #55511B",
"m  c #5E5718",
"M  c #634E15",
"N  c #644F15",
"B  c #695215",
"V  c #6E5617",
"C  c #6F5718",
"Z  c #6E691B",
"A  c #6E681C",
"S  c #6E6A34",
"D  c #3F3F42",
"F  c #434346",
"G  c #505052",
"H  c #555452",
"J  c #565654",
"K  c #565657",
"L  c #5E5D50",
"P  c #575759",
"I  c #646359",
"U  c #646360",
"Y  c #636464",
"T  c #646464",
"R  c #6E6E6C",
"E  c #876617",
"W  c #8B711E",
"Q  c #8B721E",
"!  c #A67C1A",
"~  c #A77D1B",
"^  c #A97F1C",
"/  c #AF821C",
"(  c #B7881D",
")  c #9B8E27",
"_  c #8B8539",
"`  c #8B8639",
"'  c #B58E26",
"]  c #A39A27",
"[  c #A49B28",
"{  c #BB9327",
"}  c #B59A2A",
"|  c #BB9929",
" . c #B5A72C",
".. c #BBAB2D",
"X. c #BAAD2C",
"o. c #BBAC2E",
"O. c #C29727",
"+. c #C19829",
"@. c #C19D2A",
"#. c #C99B28",
"$. c #C99C28",
"%. c #D39C21",
"&. c #D39D22",
"*. c #D49E22",
"=. c #D59E22",
"-. c #D59F22",
";. c #D6A023",
":. c #D7A123",
">. c #D7A425",
",. c #D8A123",
"<. c #D1AD2F",
"1. c #C1B831",
"2. c #CFBD30",
"3. c #C9BF34",
"4. c #C1B33C",
"5. c #DEB932",
"6. c #DDBA32",
"7. c #E3AD29",
"8. c #E4AE29",
"9. c #E6AF29",
"0. c #E3B12A",
"q. c #E6B02A",
"w. c #E5B42B",
"e. c #E0B02F",
"r. c #E8B12A",
"t. c #E8B12B",
"y. c #E8B22B",
"u. c #ECB62D",
"i. c #E4BC2D",
"p. c #E1BE32",
"a. c #EBB932",
"s. c #EBBA32",
"d. c #ECBA32",
"f. c #F3BD30",
"g. c #CFC532",
"h. c #CAC135",
"j. c #D1C636",
"k. c #F6C032",
"l. c #F6C132",
"z. c #F7C132",
"x. c #F8C233",
"c. c #FCC432",
"v. c #FBC635",
"b. c #FCC534",
"n. c #FCC735",
"m. c #FFCA33",
"M. c #FDC836",
"N. c #FEC836",
"B. c #FFC936",
"V. c #FFCA36",
"C. c #FFCB36",
"Z. c #FFCB37",
"A. c #FFCE37",
"S. c #EBDF3D",
"D. c #FCD137",
"F. c #FFD138",
"G. c #FCD239",
"H. c #FFD338",
"J. c #FFD339",
"K. c #FBD53A",
"L. c #FFDA3B",
"P. c #FFDE3C",
"I. c #FFDF3C",
"U. c #F7E23C",
"Y. c #F5E73F",
"T. c #FCE13B",
"R. c #FDE13B",
"E. c #FBE03D",
"W. c #FCE03D",
"Q. c #FFE33E",
"!. c #FFE43E",
"~. c #FFE63E",
"^. c #FFE73F",
"/. c #F4E83F",
"(. c #F5E93F",
"). c #FFE83C",
"_. c #FFEA3D",
"`. c #FFE83E",
"'. c #FFE83F",
"]. c #FFEF3F",
"[. c #FFF13F",
"{. c #B5AD44",
"}. c #DDD347",
"|. c #D1C95C",
" X c #E0D642",
".X c #FFDA52",
"XX c #F8EB42",
"oX c #FBEF41",
"OX c #F9EC43",
"+X c #FFEF41",
"@X c #FDF042",
"#X c #FEF042",
"$X c #FEF142",
"%X c #FFF142",
"&X c #FFF242",
"*X c #FFF243",
"=X c #FFF440",
"-X c #FFF541",
";X c #FFF64C",
":X c #FFF75F",
">X c #D4CE73",
",X c #FBD872",
"<X c #FFF462",
"1X c #FFF569",
"2X c #FFF56A",
"3X c #FFF86A",
"4X c #FFF96B",
"5X c #FFF874",
"6X c #FFF77E",
"7X c #FFF97F",
"8X c #FFFA7F",
"9X c #9B9A82",
"0X c #A09D98",
"qX c #D7D39C",
"wX c #FDF58A",
"eX c #FFF591",
"rX c #DDD9AA",
"tX c #FFFCB2",
"yX c #C1C1C4",
"uX c #C3C4C7",
"iX c #C9C9CF",
"pX c #CACBCE",
"aX c #D1D1CE",
"sX c #FFFEC0",
"dX c #FFFEC2",
"fX c #FFFFC7",
"gX c #FFFFCA",
"hX c #EBEAE9",
"jX c #FEFDEB",
"kX c #F4F4F4",
"lX c #F8F8F6",
"zX c #F9F8F6",
"xX c #FFFEF4",
"cX c #FFFFF5",
/* pixels */
"                                                                ",
"                                                                ",
"                                                                ",
"                            . . . .                             ",
"                          p R S Z A t                           ",
"                      4 - L jX5X=X%Xm @ 1                       ",
"                  . G aX|. X<X;X=X%Xp.$./ a .                   ",
"                  P 9XtX:X].R. .{.wX.Xc.y.E s                   ",
"                < iXtX;X%XE.s.e D hX,Xm.n.r.^ +                 ",
"                : iXdX*XI.@.9 @ < u 4.`.V.b.O.X                 ",
"              p U rXeXW.| Q n 3 5 H ` X.J.L.5.M q               ",
"            . Y cX2XW.d.j n /.f F kXH y XX%X+XZ.M .             ",
"            . T cX3XX.k 0XqXXXf F lX>Xg.%XP.F.V.N .             ",
"            . T cX3X] : uXgXOXf F lX8X[.~.J.b.f.x .             ",
"            . T cX4X[ > yXdXOXf F zX8X).Z.V.l.,.g .             ",
"            . T cX4X[ : yXgXOXf F zX6X).V.V.l.:.g .             ",
"            . T cX4X] > yXdXXXd F zX6X).V.x.u.*.g .             ",
"            . T cX4X[ > yXdXOXt F zX6X).V.8.*.:.g .             ",
"            . T cX4X] ; uXgXOXz F lX8X`.V.7.%.*.g .             ",
"            . T cX4XX.k 0XqXXXd F lX>X2.K.0.%.:.g .             ",
"            . T cX2XW.d.r n XXd F kXH d Y.i.%.%.g .             ",
"              p I }.~.n.{ Q n 3 5 K _ ..K.w.( g 9               ",
"                + 3.~.V.Z.+.9 # - w 1.oXV.q.! X                 ",
"                1 3.XXV.Z.b.s.r y S.].~.V.q.! @                 ",
"                  b ) ~.F.V.n.' } %XW.D.y.E s                   ",
"                  . z j.<.e.V.Z.J.U.5.#./ a .                   ",
"                      2 - x V.V.l.>.g = 1                       ",
"                          q V C B l 7                           ",
"                            . . . .                             ",
"                                                                ",
"                                                                ",
"                                                                "
};
