/* XPM */
static char *ce81460b37174d28bc653ab47e6b6f00GppaVbQlAA6yTcH9[] = {
/* columns rows colors chars-per-pixel */
"32 32 180 2 ",
"   c #222226",
".  c #232227",
"X  c #232327",
"o  c #242327",
"O  c #232228",
"+  c #242328",
"@  c #242329",
"#  c #242428",
"$  c #252428",
"%  c #252429",
"&  c #25242A",
"*  c #26252A",
"=  c #26252B",
"-  c #27252B",
";  c #26262A",
":  c #27262A",
">  c #27272A",
",  c #27262B",
"<  c #27272B",
"1  c #27262C",
"2  c #28272A",
"3  c #28272B",
"4  c #28272C",
"5  c #28282B",
"6  c #28282C",
"7  c #29282C",
"8  c #29282D",
"9  c #353439",
"0  c #37373A",
"q  c gray23",
"w  c #38383C",
"e  c #39393C",
"r  c #39393D",
"t  c #3A393C",
"y  c #3A393D",
"u  c #3A3A3C",
"i  c #3B3A3C",
"p  c #3B3B3C",
"a  c #3A3A3D",
"s  c #3B3A3D",
"d  c #3B3B3D",
"f  c #3A3A3E",
"g  c #3C3B3F",
"h  c #3C3C3E",
"j  c #3D3D3F",
"k  c #3E3E3F",
"l  c #3F3F3F",
"z  c #3D3D40",
"x  c #3E3D40",
"c  c #3E3E40",
"v  c #3E3E41",
"b  c #3F3E41",
"n  c #3F3F41",
"m  c #3F3F42",
"M  c #403F42",
"N  c #403F43",
"B  c #404041",
"V  c #404042",
"C  c #414142",
"Z  c #414143",
"A  c gray26",
"S  c #424243",
"D  c #414144",
"F  c #424144",
"G  c #424244",
"H  c #434344",
"J  c #434345",
"K  c #444445",
"L  c #464645",
"P  c #444446",
"I  c #454446",
"U  c #454546",
"Y  c #454547",
"T  c #464647",
"R  c gray28",
"E  c #464648",
"W  c #474748",
"Q  c #474749",
"!  c #48474A",
"~  c #484848",
"^  c #484849",
"/  c #494949",
"(  c #48484A",
")  c #49484A",
"_  c #49494A",
"`  c #49484B",
"'  c #49494B",
"]  c #4A494B",
"[  c gray29",
"{  c #4A4A4B",
"}  c #4B4B4B",
"|  c #4A4A4C",
" . c #4B4B4C",
".. c #4A4A4D",
"X. c #4B4B4D",
"o. c #4C4C4C",
"O. c #4C4C4D",
"+. c gray30",
"@. c #4E4E4D",
"#. c #4C4C4E",
"$. c #4D4D4E",
"%. c #4D4D4F",
"&. c #4E4D4F",
"*. c #4E4E4E",
"=. c #4E4E4F",
"-. c gray31",
";. c #4D4D50",
":. c #4E4E50",
">. c #4F4F50",
",. c #4F4F51",
"<. c #4F4F52",
"1. c #505050",
"2. c #505051",
"3. c #515151",
"4. c #515152",
"5. c #525153",
"6. c gray32",
"7. c #535352",
"8. c #525253",
"9. c #535353",
"0. c #525155",
"q. c #525254",
"w. c #535354",
"e. c gray33",
"r. c #555554",
"t. c #545455",
"y. c #555555",
"u. c #545456",
"i. c #555556",
"p. c #555457",
"a. c #565656",
"s. c #575756",
"d. c #565657",
"f. c gray34",
"g. c #585858",
"h. c #595958",
"j. c #585859",
"k. c gray35",
"l. c #59595A",
"z. c #5A5A5A",
"x. c #5A5A5B",
"c. c #5B5B5B",
"v. c #5B5B5C",
"b. c gray36",
"n. c #5D5D5C",
"m. c #5C5C5D",
"M. c #5D5D5D",
"N. c #5E5E5D",
"B. c #5C5C5E",
"V. c #5D5D5E",
"C. c #5D5D5F",
"Z. c gray37",
"A. c #5F5F5F",
"S. c #606060",
"D. c #616162",
"F. c #626262",
"G. c #636263",
"H. c gray39",
"J. c #646463",
"K. c #626264",
"L. c #636364",
"P. c #646464",
"I. c #656565",
"U. c #676767",
"Y. c DimGray",
"T. c #6A6A6A",
"R. c gray42",
"E. c #6C6C6C",
"W. c #6C6C6D",
"Q. c #6D6D6D",
"!. c gray43",
"~. c #6E6E6F",
"^. c #6F6F6F",
"/. c #70706F",
"(. c gray44",
"). c #717170",
"_. c #717171",
"`. c #717172",
"'. c #727272",
"]. c gray46",
/* pixels */
"'.'.'.'.^.'.'.'.'.'.^.(.(.(.(.(.(.(.(.'.'.'.'.'.(.'.'.(.'.'.T.M.",
"'.D.M.M.c.M.M.c.M.m.c.m.m.m.m.m.m.m.M.x.M.C.b.M.M.b.M.M.b.D.D.g.",
"'.c.L u i i u u u u u u u u u u u u u u u u u u u u i i q $.D.d.",
"'.c.u . @ o @ @ @ @ & $ @ @ @ @ @ @ @ @ @ @ $ & @ @ @ o o } T.d.",
"'.M.u @ $ $ $ $ $ $ $ $ $ $ $ $ $ $ $ $ $ $ $ $ $ @ $ $ o } T.0.",
"'.M.i @ $ $ 4 8 8 $ 6 - 6 6 - $ 8 - < < 6 6 $ - 4 4 $ $ o ! T.d.",
"'.b.i $ $ 8 p.x.:.} } X.X.J p k ,.5.7.-.X.} k J X.J $ $ . } T.9.",
"'.M.u $ $ $ u.d.Q A J ( ( Y V P p.A.m.g.u.( A X.5.N 2 @ . } T.d.",
"(.b.q o @ 4 :.5.$.$.Q X.} } P b ( O.[ ( ( V z L ! u $ $ & ( T.e.",
"'.b.q @ @ 4 :.x.J.T.M.b.e.,.X.u p V P ( X.Q D P Q b - - & ( T.d.",
"'.M.u @ $ 4 i X.g.b.d.5.Q A A H 5.b.P.~.E.M.b.b.p.Q $ $ . ( T.e.",
"^.M.i @ $ - 9 b } d.9.L A A L 5.b.m.S.U.(.S.M.k.5.k - $ . } T.d.",
"(.M.i @ @ 4 u.D.b.d.d.1.$.L A d.m.A.c.b.H.k.k.d.u.X.6 $   ( T.d.",
"(.M.i @ $ 4 G.^.D.g.c.d.X.A b $.g.k.5.[ $.( Q ( ,.:.6 $   } T.d.",
"(.M.i @ $ 8 C.L.c.9.1.:.A M X.$.7.g.@.H b w u V O.} < $   [ T.d.",
"(.M.i @ $ 4 0.g.} H A A A X.D.^.A.A.h.-.J u b } 5.} 8 $   [ T.9.",
"'.M.u @ # < [ [ ( $.A A A [ b.!.S.g.k.k.-.A V A } ( - & & ( T.y.",
"~.M.u $ $ < V H V V p O.-.5.g.H.k.e.-.O.5.H q e b b - &   ( T.y.",
"'.M.u $ $ < ~ $.[ O.( ( -.7.5.} ( ( V V [ [ ( ,.k.<.6 -   ( E.y.",
"^.M.u $ $ < 5.b.k.k.-.[ g.S.b.5.~ p b V H $.7.U.'.m.6 $ & [ T.y.",
"'.M.q @ $ 6 5.M.k.O.P k.T.'.^.T.g.( [ O.D P ,.P.T.5.8 $   O.T.e.",
"'.b.u . $ 6 5.g.O.D J ,.I.T.M.A.A.7.( P V V $.c.A.5.< $   [ T.e.",
"'.M.i @ $ < V P H V u p 5.M.M.M.g.} p p V u z P ( V < $ & ( T.g.",
"(.M.i @ $ 6 ,.A.k.5.-.X.Q X.X.Q ~ g.k.O.O.' :.,.g.5.5 #   ( T.e.",
"'.b.i o @ 8 L.].T.M.M.c.$.( P u Q T.T.M.g.d.b.M.I.m.6 & & ' T.e.",
"'.M.i @ @ 2 0.J.m.,.O.,.$.} P u ( m.c.5.>.X.} $.7.( - -   ' T.d.",
"(.M.i o $ $ 8 8 6 6 < < $ 5 $ - $ 8 8 4 2 4 2 2 < 6 $ $   ( T.e.",
"'.b.i @ $ $ $ $ $ $ $ . $ $ $ $ $ $ $ $ $ @ @ @ $ $ $ $ & X.T.e.",
"/.b.q . @ . . .     # . .     . @ . . . . . o . . . #   . } T.7.",
"'.D.:.} X.} X.! ( } } } } ( } } X.} ( ( } } } } } } } X.( b.T.d.",
"R.D.J.R.T.R.T.T.T.T.T.T.T.T.T.T.T.T.T.T.T.T.T.T.T.T.T.T.T.T.H.7.",
"M.s.9.9.d.9.d.0.7.d.d.7.d.e.d.9.d.9.d.d.9.d.9.d.d.5.7.7.d.d.7.d."
};
